ISO-10303-21;
HEADER;
FILE_DESCRIPTION(('FreeCAD Model'),'2;1');
FILE_NAME('Open CASCADE Shape Model','2025-07-24T14:26:20',(''),(''),
  'Open CASCADE STEP processor 7.8','FreeCAD','Unknown');
FILE_SCHEMA(('AUTOMOTIVE_DESIGN { 1 0 10303 214 1 1 1 1 }'));
ENDSEC;
DATA;
#1 = APPLICATION_PROTOCOL_DEFINITION('international standard',
  'automotive_design',2000,#2);
#2 = APPLICATION_CONTEXT(
  'core data for automotive mechanical design processes');
#3 = SHAPE_DEFINITION_REPRESENTATION(#4,#10);
#4 = PRODUCT_DEFINITION_SHAPE('','',#5);
#5 = PRODUCT_DEFINITION('design','',#6,#9);
#6 = PRODUCT_DEFINITION_FORMATION('','',#7);
#7 = PRODUCT('Belt Tensioning3','Belt Tensioning3','',(#8));
#8 = PRODUCT_CONTEXT('',#2,'mechanical');
#9 = PRODUCT_DEFINITION_CONTEXT('part definition',#2,'design');
#10 = ADVANCED_BREP_SHAPE_REPRESENTATION('',(#11,#15),#1240);
#11 = AXIS2_PLACEMENT_3D('',#12,#13,#14);
#12 = CARTESIAN_POINT('',(0.,0.,0.));
#13 = DIRECTION('',(0.,0.,1.));
#14 = DIRECTION('',(1.,0.,-0.));
#15 = MANIFOLD_SOLID_BREP('',#16);
#16 = CLOSED_SHELL('',(#17,#68,#99,#130,#161,#192,#217,#314,#338,#354,
    #421,#438,#454,#485,#582,#607,#624,#641,#672,#697,#728,#756,#784,
    #806,#834,#851,#874,#891,#915,#932,#949,#974,#991,#1003,#1027,#1058,
    #1086,#1102,#1124,#1136,#1153,#1178,#1195,#1211,#1223));
#17 = ADVANCED_FACE('',(#18,#52),#63,.F.);
#18 = FACE_BOUND('',#19,.F.);
#19 = EDGE_LOOP('',(#20,#30,#38,#46));
#20 = ORIENTED_EDGE('',*,*,#21,.F.);
#21 = EDGE_CURVE('',#22,#24,#26,.T.);
#22 = VERTEX_POINT('',#23);
#23 = CARTESIAN_POINT('',(-6.4,-405.,38.4));
#24 = VERTEX_POINT('',#25);
#25 = CARTESIAN_POINT('',(-6.4,-436.,38.4));
#26 = LINE('',#27,#28);
#27 = CARTESIAN_POINT('',(-6.4,-404.,38.4));
#28 = VECTOR('',#29,1.);
#29 = DIRECTION('',(3.3E-16,-1.,5.6E-16));
#30 = ORIENTED_EDGE('',*,*,#31,.T.);
#31 = EDGE_CURVE('',#22,#32,#34,.T.);
#32 = VERTEX_POINT('',#33);
#33 = CARTESIAN_POINT('',(6.4,-405.,38.4));
#34 = LINE('',#35,#36);
#35 = CARTESIAN_POINT('',(-7.4,-405.,38.4));
#36 = VECTOR('',#37,1.);
#37 = DIRECTION('',(1.,-5.5E-16,0.));
#38 = ORIENTED_EDGE('',*,*,#39,.T.);
#39 = EDGE_CURVE('',#32,#40,#42,.T.);
#40 = VERTEX_POINT('',#41);
#41 = CARTESIAN_POINT('',(6.4,-436.,38.4));
#42 = LINE('',#43,#44);
#43 = CARTESIAN_POINT('',(6.4,-404.,38.4));
#44 = VECTOR('',#45,1.);
#45 = DIRECTION('',(3.3E-16,-1.,5.6E-16));
#46 = ORIENTED_EDGE('',*,*,#47,.F.);
#47 = EDGE_CURVE('',#24,#40,#48,.T.);
#48 = LINE('',#49,#50);
#49 = CARTESIAN_POINT('',(-6.4,-436.,38.4));
#50 = VECTOR('',#51,1.);
#51 = DIRECTION('',(1.,0.,6.7E-16));
#52 = FACE_BOUND('',#53,.F.);
#53 = EDGE_LOOP('',(#54));
#54 = ORIENTED_EDGE('',*,*,#55,.T.);
#55 = EDGE_CURVE('',#56,#56,#58,.T.);
#56 = VERTEX_POINT('',#57);
#57 = CARTESIAN_POINT('',(-2.39808173319E-14,-413.5,38.4));
#58 = CIRCLE('',#59,3.5);
#59 = AXIS2_PLACEMENT_3D('',#60,#61,#62);
#60 = CARTESIAN_POINT('',(-1.86517468137E-14,-410.,38.4));
#61 = DIRECTION('',(0.,7.8E-16,1.));
#62 = DIRECTION('',(6.9E-16,-1.,7.8E-16));
#63 = PLANE('',#64);
#64 = AXIS2_PLACEMENT_3D('',#65,#66,#67);
#65 = CARTESIAN_POINT('',(-7.4,-404.,38.4));
#66 = DIRECTION('',(6.7E-16,1.1E-16,-1.));
#67 = DIRECTION('',(5.6E-16,-1.,-1.1E-16));
#68 = ADVANCED_FACE('',(#69),#94,.T.);
#69 = FACE_BOUND('',#70,.F.);
#70 = EDGE_LOOP('',(#71,#81,#87,#88));
#71 = ORIENTED_EDGE('',*,*,#72,.F.);
#72 = EDGE_CURVE('',#73,#75,#77,.T.);
#73 = VERTEX_POINT('',#74);
#74 = CARTESIAN_POINT('',(-7.4,-405.,37.4));
#75 = VERTEX_POINT('',#76);
#76 = CARTESIAN_POINT('',(-7.4,-436.,37.4));
#77 = LINE('',#78,#79);
#78 = CARTESIAN_POINT('',(-7.4,-404.,37.4));
#79 = VECTOR('',#80,1.);
#80 = DIRECTION('',(3.3E-16,-1.,5.6E-16));
#81 = ORIENTED_EDGE('',*,*,#82,.T.);
#82 = EDGE_CURVE('',#73,#22,#83,.T.);
#83 = LINE('',#84,#85);
#84 = CARTESIAN_POINT('',(-7.15,-405.,37.65));
#85 = VECTOR('',#86,1.);
#86 = DIRECTION('',(0.707106781187,-5.4E-16,0.707106781187));
#87 = ORIENTED_EDGE('',*,*,#21,.T.);
#88 = ORIENTED_EDGE('',*,*,#89,.F.);
#89 = EDGE_CURVE('',#75,#24,#90,.T.);
#90 = LINE('',#91,#92);
#91 = CARTESIAN_POINT('',(-7.4,-436.,37.4));
#92 = VECTOR('',#93,1.);
#93 = DIRECTION('',(0.707106781187,0.,0.707106781187));
#94 = PLANE('',#95);
#95 = AXIS2_PLACEMENT_3D('',#96,#97,#98);
#96 = CARTESIAN_POINT('',(-6.9,-404.,37.9));
#97 = DIRECTION('',(-0.707106781187,4.1E-16,0.707106781187));
#98 = DIRECTION('',(-1.550862197135E-16,1.,-7.349137802865E-16));
#99 = ADVANCED_FACE('',(#100),#125,.T.);
#100 = FACE_BOUND('',#101,.F.);
#101 = EDGE_LOOP('',(#102,#110,#111,#119));
#102 = ORIENTED_EDGE('',*,*,#103,.F.);
#103 = EDGE_CURVE('',#24,#104,#106,.T.);
#104 = VERTEX_POINT('',#105);
#105 = CARTESIAN_POINT('',(-5.985786437627,-437.,37.4));
#106 = LINE('',#107,#108);
#107 = CARTESIAN_POINT('',(-6.153388932034,-436.5953717849,
    37.804628215085));
#108 = VECTOR('',#109,1.);
#109 = DIRECTION('',(0.281084637715,-0.678598344546,-0.678598344546));
#110 = ORIENTED_EDGE('',*,*,#47,.T.);
#111 = ORIENTED_EDGE('',*,*,#112,.F.);
#112 = EDGE_CURVE('',#113,#40,#115,.T.);
#113 = VERTEX_POINT('',#114);
#114 = CARTESIAN_POINT('',(5.985786437627,-437.,37.4));
#115 = LINE('',#116,#117);
#116 = CARTESIAN_POINT('',(5.647734061254,-437.8161306318,
    36.583869368169));
#117 = VECTOR('',#118,1.);
#118 = DIRECTION('',(0.281084637715,0.678598344546,0.678598344546));
#119 = ORIENTED_EDGE('',*,*,#120,.F.);
#120 = EDGE_CURVE('',#104,#113,#121,.T.);
#121 = LINE('',#122,#123);
#122 = CARTESIAN_POINT('',(-6.4,-437.,37.4));
#123 = VECTOR('',#124,1.);
#124 = DIRECTION('',(1.,0.,6.7E-16));
#125 = PLANE('',#126);
#126 = AXIS2_PLACEMENT_3D('',#127,#128,#129);
#127 = CARTESIAN_POINT('',(-6.4,-436.5,37.9));
#128 = DIRECTION('',(-5.045716313948E-16,-0.707106781187,0.707106781187)
  );
#129 = DIRECTION('',(-1.,2.178602215364E-17,-6.917860221536E-16));
#130 = ADVANCED_FACE('',(#131),#156,.T.);
#131 = FACE_BOUND('',#132,.T.);
#132 = EDGE_LOOP('',(#133,#134,#142,#150));
#133 = ORIENTED_EDGE('',*,*,#31,.T.);
#134 = ORIENTED_EDGE('',*,*,#135,.T.);
#135 = EDGE_CURVE('',#32,#136,#138,.T.);
#136 = VERTEX_POINT('',#137);
#137 = CARTESIAN_POINT('',(6.4,-404.,37.4));
#138 = LINE('',#139,#140);
#139 = CARTESIAN_POINT('',(6.4,-404.5,37.9));
#140 = VECTOR('',#141,1.);
#141 = DIRECTION('',(-2.E-17,0.707106781187,-0.707106781187));
#142 = ORIENTED_EDGE('',*,*,#143,.F.);
#143 = EDGE_CURVE('',#144,#136,#146,.T.);
#144 = VERTEX_POINT('',#145);
#145 = CARTESIAN_POINT('',(-6.4,-404.,37.4));
#146 = LINE('',#147,#148);
#147 = CARTESIAN_POINT('',(-7.4,-404.,37.4));
#148 = VECTOR('',#149,1.);
#149 = DIRECTION('',(1.,-5.5E-16,0.));
#150 = ORIENTED_EDGE('',*,*,#151,.F.);
#151 = EDGE_CURVE('',#22,#144,#152,.T.);
#152 = LINE('',#153,#154);
#153 = CARTESIAN_POINT('',(-6.4,-404.5,37.9));
#154 = VECTOR('',#155,1.);
#155 = DIRECTION('',(7.5E-16,0.707106781187,-0.707106781187));
#156 = PLANE('',#157);
#157 = AXIS2_PLACEMENT_3D('',#158,#159,#160);
#158 = CARTESIAN_POINT('',(-7.4,-404.5,37.9));
#159 = DIRECTION('',(-6.5E-16,0.707106781187,0.707106781187));
#160 = DIRECTION('',(1.,1.846194077713E-16,7.346194077713E-16));
#161 = ADVANCED_FACE('',(#162),#187,.F.);
#162 = FACE_BOUND('',#163,.T.);
#163 = EDGE_LOOP('',(#164,#174,#180,#181));
#164 = ORIENTED_EDGE('',*,*,#165,.F.);
#165 = EDGE_CURVE('',#166,#168,#170,.T.);
#166 = VERTEX_POINT('',#167);
#167 = CARTESIAN_POINT('',(7.4,-405.,37.4));
#168 = VERTEX_POINT('',#169);
#169 = CARTESIAN_POINT('',(7.4,-436.,37.4));
#170 = LINE('',#171,#172);
#171 = CARTESIAN_POINT('',(7.4,-404.,37.4));
#172 = VECTOR('',#173,1.);
#173 = DIRECTION('',(3.3E-16,-1.,5.6E-16));
#174 = ORIENTED_EDGE('',*,*,#175,.T.);
#175 = EDGE_CURVE('',#166,#32,#176,.T.);
#176 = LINE('',#177,#178);
#177 = CARTESIAN_POINT('',(7.15,-405.,37.65));
#178 = VECTOR('',#179,1.);
#179 = DIRECTION('',(-0.707106781187,4.8E-16,0.707106781187));
#180 = ORIENTED_EDGE('',*,*,#39,.T.);
#181 = ORIENTED_EDGE('',*,*,#182,.F.);
#182 = EDGE_CURVE('',#168,#40,#183,.T.);
#183 = LINE('',#184,#185);
#184 = CARTESIAN_POINT('',(7.4,-436.,37.4));
#185 = VECTOR('',#186,1.);
#186 = DIRECTION('',(-0.707106781187,0.,0.707106781187));
#187 = PLANE('',#188);
#188 = AXIS2_PLACEMENT_3D('',#189,#190,#191);
#189 = CARTESIAN_POINT('',(6.9,-404.,37.9));
#190 = DIRECTION('',(-0.707106781187,3.E-17,-0.707106781187));
#191 = DIRECTION('',(1.312132034356E-16,1.,-8.87867965644E-17));
#192 = ADVANCED_FACE('',(#193),#212,.F.);
#193 = FACE_BOUND('',#194,.T.);
#194 = EDGE_LOOP('',(#195,#203,#204,#205));
#195 = ORIENTED_EDGE('',*,*,#196,.F.);
#196 = EDGE_CURVE('',#56,#197,#199,.T.);
#197 = VERTEX_POINT('',#198);
#198 = CARTESIAN_POINT('',(-2.39808173319E-14,-412.5,37.4));
#199 = LINE('',#200,#201);
#200 = CARTESIAN_POINT('',(-1.7763568394E-14,-412.5,37.4));
#201 = VECTOR('',#202,1.);
#202 = DIRECTION('',(3.3E-16,0.707106781187,-0.707106781187));
#203 = ORIENTED_EDGE('',*,*,#55,.T.);
#204 = ORIENTED_EDGE('',*,*,#196,.T.);
#205 = ORIENTED_EDGE('',*,*,#206,.F.);
#206 = EDGE_CURVE('',#197,#197,#207,.T.);
#207 = CIRCLE('',#208,2.5);
#208 = AXIS2_PLACEMENT_3D('',#209,#210,#211);
#209 = CARTESIAN_POINT('',(-1.7763568394E-14,-410.,37.4));
#210 = DIRECTION('',(0.,7.8E-16,1.));
#211 = DIRECTION('',(6.9E-16,-1.,7.8E-16));
#212 = CONICAL_SURFACE('',#213,2.5,0.785398163397);
#213 = AXIS2_PLACEMENT_3D('',#214,#215,#216);
#214 = CARTESIAN_POINT('',(-1.7763568394E-14,-410.,37.4));
#215 = DIRECTION('',(-4.4E-16,3.3E-16,1.));
#216 = DIRECTION('',(6.9E-16,-1.,3.3E-16));
#217 = ADVANCED_FACE('',(#218,#275),#309,.T.);
#218 = FACE_BOUND('',#219,.T.);
#219 = EDGE_LOOP('',(#220,#221,#229,#237,#245,#253,#261,#269));
#220 = ORIENTED_EDGE('',*,*,#72,.F.);
#221 = ORIENTED_EDGE('',*,*,#222,.F.);
#222 = EDGE_CURVE('',#223,#73,#225,.T.);
#223 = VERTEX_POINT('',#224);
#224 = CARTESIAN_POINT('',(-7.4,-405.,34.6));
#225 = LINE('',#226,#227);
#226 = CARTESIAN_POINT('',(-7.4,-405.,34.6));
#227 = VECTOR('',#228,1.);
#228 = DIRECTION('',(-6.7E-16,-1.1E-16,1.));
#229 = ORIENTED_EDGE('',*,*,#230,.F.);
#230 = EDGE_CURVE('',#231,#223,#233,.T.);
#231 = VERTEX_POINT('',#232);
#232 = CARTESIAN_POINT('',(-7.4,-425.,34.6));
#233 = LINE('',#234,#235);
#234 = CARTESIAN_POINT('',(-7.4,-440.,34.6));
#235 = VECTOR('',#236,1.);
#236 = DIRECTION('',(-5.6E-16,1.,-5.6E-16));
#237 = ORIENTED_EDGE('',*,*,#238,.F.);
#238 = EDGE_CURVE('',#239,#231,#241,.T.);
#239 = VERTEX_POINT('',#240);
#240 = CARTESIAN_POINT('',(-7.4,-425.,19.9));
#241 = LINE('',#242,#243);
#242 = CARTESIAN_POINT('',(-7.4,-425.,19.9));
#243 = VECTOR('',#244,1.);
#244 = DIRECTION('',(-6.7E-16,-3.3E-16,1.));
#245 = ORIENTED_EDGE('',*,*,#246,.F.);
#246 = EDGE_CURVE('',#247,#239,#249,.T.);
#247 = VERTEX_POINT('',#248);
#248 = CARTESIAN_POINT('',(-7.4,-405.,19.9));
#249 = LINE('',#250,#251);
#250 = CARTESIAN_POINT('',(-7.4,-404.,19.9));
#251 = VECTOR('',#252,1.);
#252 = DIRECTION('',(5.6E-16,-1.,5.6E-16));
#253 = ORIENTED_EDGE('',*,*,#254,.F.);
#254 = EDGE_CURVE('',#255,#247,#257,.T.);
#255 = VERTEX_POINT('',#256);
#256 = CARTESIAN_POINT('',(-7.4,-405.,17.1));
#257 = LINE('',#258,#259);
#258 = CARTESIAN_POINT('',(-7.4,-405.,16.1));
#259 = VECTOR('',#260,1.);
#260 = DIRECTION('',(-6.7E-16,-1.1E-16,1.));
#261 = ORIENTED_EDGE('',*,*,#262,.F.);
#262 = EDGE_CURVE('',#263,#255,#265,.T.);
#263 = VERTEX_POINT('',#264);
#264 = CARTESIAN_POINT('',(-7.4,-436.,17.1));
#265 = LINE('',#266,#267);
#266 = CARTESIAN_POINT('',(-7.4,-450.,17.1));
#267 = VECTOR('',#268,1.);
#268 = DIRECTION('',(-3.3E-16,1.,-5.6E-16));
#269 = ORIENTED_EDGE('',*,*,#270,.T.);
#270 = EDGE_CURVE('',#263,#75,#271,.T.);
#271 = LINE('',#272,#273);
#272 = CARTESIAN_POINT('',(-7.4,-436.,17.1));
#273 = VECTOR('',#274,1.);
#274 = DIRECTION('',(2.2E-16,0.,1.));
#275 = FACE_BOUND('',#276,.T.);
#276 = EDGE_LOOP('',(#277,#287,#295,#303));
#277 = ORIENTED_EDGE('',*,*,#278,.T.);
#278 = EDGE_CURVE('',#279,#281,#283,.T.);
#279 = VERTEX_POINT('',#280);
#280 = CARTESIAN_POINT('',(-7.4,-434.,24.25));
#281 = VERTEX_POINT('',#282);
#282 = CARTESIAN_POINT('',(-7.4,-431.,24.25));
#283 = LINE('',#284,#285);
#284 = CARTESIAN_POINT('',(-7.4,-443.,24.25));
#285 = VECTOR('',#286,1.);
#286 = DIRECTION('',(2.2E-16,1.,-1.1E-16));
#287 = ORIENTED_EDGE('',*,*,#288,.T.);
#288 = EDGE_CURVE('',#281,#289,#291,.T.);
#289 = VERTEX_POINT('',#290);
#290 = CARTESIAN_POINT('',(-7.4,-431.,30.25));
#291 = LINE('',#292,#293);
#292 = CARTESIAN_POINT('',(-7.4,-431.,25.75));
#293 = VECTOR('',#294,1.);
#294 = DIRECTION('',(-2.2E-16,1.1E-16,1.));
#295 = ORIENTED_EDGE('',*,*,#296,.F.);
#296 = EDGE_CURVE('',#297,#289,#299,.T.);
#297 = VERTEX_POINT('',#298);
#298 = CARTESIAN_POINT('',(-7.4,-434.,30.25));
#299 = LINE('',#300,#301);
#300 = CARTESIAN_POINT('',(-7.4,-443.,30.25));
#301 = VECTOR('',#302,1.);
#302 = DIRECTION('',(2.2E-16,1.,-1.1E-16));
#303 = ORIENTED_EDGE('',*,*,#304,.T.);
#304 = EDGE_CURVE('',#297,#279,#305,.T.);
#305 = LINE('',#306,#307);
#306 = CARTESIAN_POINT('',(-7.4,-434.,27.25));
#307 = VECTOR('',#308,1.);
#308 = DIRECTION('',(2.2E-16,-1.1E-16,-1.));
#309 = PLANE('',#310);
#310 = AXIS2_PLACEMENT_3D('',#311,#312,#313);
#311 = CARTESIAN_POINT('',(-7.4,-421.3734439834,27.25));
#312 = DIRECTION('',(-1.,-3.158331355725E-16,-0.));
#313 = DIRECTION('',(3.158331355725E-16,-1.,0.));
#314 = ADVANCED_FACE('',(#315),#333,.T.);
#315 = FACE_BOUND('',#316,.F.);
#316 = EDGE_LOOP('',(#317,#325,#326,#327));
#317 = ORIENTED_EDGE('',*,*,#318,.F.);
#318 = EDGE_CURVE('',#75,#319,#321,.T.);
#319 = VERTEX_POINT('',#320);
#320 = CARTESIAN_POINT('',(-6.4,-437.,36.985786437627));
#321 = LINE('',#322,#323);
#322 = CARTESIAN_POINT('',(-5.003457053,-438.396542947,36.407319408543)
  );
#323 = VECTOR('',#324,1.);
#324 = DIRECTION('',(0.678598344546,-0.678598344546,-0.281084637715));
#325 = ORIENTED_EDGE('',*,*,#89,.T.);
#326 = ORIENTED_EDGE('',*,*,#103,.T.);
#327 = ORIENTED_EDGE('',*,*,#328,.F.);
#328 = EDGE_CURVE('',#319,#104,#329,.T.);
#329 = LINE('',#330,#331);
#330 = CARTESIAN_POINT('',(-6.692893218813,-437.,36.692893218813));
#331 = VECTOR('',#332,1.);
#332 = DIRECTION('',(0.707106781187,0.,0.707106781187));
#333 = PLANE('',#334);
#334 = AXIS2_PLACEMENT_3D('',#335,#336,#337);
#335 = CARTESIAN_POINT('',(-7.046446609407,-436.5,37.046446609407));
#336 = DIRECTION('',(-0.5,-0.707106781187,0.5));
#337 = DIRECTION('',(-0.707106781187,5.551115123126E-17,-0.707106781187)
  );
#338 = ADVANCED_FACE('',(#339),#349,.F.);
#339 = FACE_BOUND('',#340,.F.);
#340 = EDGE_LOOP('',(#341,#342,#348));
#341 = ORIENTED_EDGE('',*,*,#82,.F.);
#342 = ORIENTED_EDGE('',*,*,#343,.T.);
#343 = EDGE_CURVE('',#73,#144,#344,.T.);
#344 = LINE('',#345,#346);
#345 = CARTESIAN_POINT('',(-7.15,-404.75,37.4));
#346 = VECTOR('',#347,1.);
#347 = DIRECTION('',(0.707106781187,0.707106781187,-6.2E-16));
#348 = ORIENTED_EDGE('',*,*,#151,.F.);
#349 = PLANE('',#350);
#350 = AXIS2_PLACEMENT_3D('',#351,#352,#353);
#351 = CARTESIAN_POINT('',(-7.4,-405.,37.4));
#352 = DIRECTION('',(0.57735026919,-0.57735026919,-0.57735026919));
#353 = DIRECTION('',(5.273559366969E-16,0.707106781187,-0.707106781187)
  );
#354 = ADVANCED_FACE('',(#355,#405),#416,.F.);
#355 = FACE_BOUND('',#356,.F.);
#356 = EDGE_LOOP('',(#357,#358,#359,#367,#375,#383,#391,#399));
#357 = ORIENTED_EDGE('',*,*,#328,.T.);
#358 = ORIENTED_EDGE('',*,*,#120,.T.);
#359 = ORIENTED_EDGE('',*,*,#360,.F.);
#360 = EDGE_CURVE('',#361,#113,#363,.T.);
#361 = VERTEX_POINT('',#362);
#362 = CARTESIAN_POINT('',(6.4,-437.,36.985786437627));
#363 = LINE('',#364,#365);
#364 = CARTESIAN_POINT('',(6.692893218813,-437.,36.692893218813));
#365 = VECTOR('',#366,1.);
#366 = DIRECTION('',(-0.707106781187,0.,0.707106781187));
#367 = ORIENTED_EDGE('',*,*,#368,.F.);
#368 = EDGE_CURVE('',#369,#361,#371,.T.);
#369 = VERTEX_POINT('',#370);
#370 = CARTESIAN_POINT('',(6.4,-437.,17.514213562373));
#371 = LINE('',#372,#373);
#372 = CARTESIAN_POINT('',(6.4,-437.,17.1));
#373 = VECTOR('',#374,1.);
#374 = DIRECTION('',(2.2E-16,0.,1.));
#375 = ORIENTED_EDGE('',*,*,#376,.T.);
#376 = EDGE_CURVE('',#369,#377,#379,.T.);
#377 = VERTEX_POINT('',#378);
#378 = CARTESIAN_POINT('',(5.985786437627,-437.,17.1));
#379 = LINE('',#380,#381);
#380 = CARTESIAN_POINT('',(6.692893218813,-437.,17.807106781187));
#381 = VECTOR('',#382,1.);
#382 = DIRECTION('',(-0.707106781187,0.,-0.707106781187));
#383 = ORIENTED_EDGE('',*,*,#384,.T.);
#384 = EDGE_CURVE('',#377,#385,#387,.T.);
#385 = VERTEX_POINT('',#386);
#386 = CARTESIAN_POINT('',(-5.985786437627,-437.,17.1));
#387 = LINE('',#388,#389);
#388 = CARTESIAN_POINT('',(6.4,-437.,17.1));
#389 = VECTOR('',#390,1.);
#390 = DIRECTION('',(-1.,0.,-6.7E-16));
#391 = ORIENTED_EDGE('',*,*,#392,.F.);
#392 = EDGE_CURVE('',#393,#385,#395,.T.);
#393 = VERTEX_POINT('',#394);
#394 = CARTESIAN_POINT('',(-6.4,-437.,17.514213562373));
#395 = LINE('',#396,#397);
#396 = CARTESIAN_POINT('',(-6.692893218813,-437.,17.807106781187));
#397 = VECTOR('',#398,1.);
#398 = DIRECTION('',(0.707106781187,0.,-0.707106781187));
#399 = ORIENTED_EDGE('',*,*,#400,.T.);
#400 = EDGE_CURVE('',#393,#319,#401,.T.);
#401 = LINE('',#402,#403);
#402 = CARTESIAN_POINT('',(-6.4,-437.,17.1));
#403 = VECTOR('',#404,1.);
#404 = DIRECTION('',(2.2E-16,0.,1.));
#405 = FACE_BOUND('',#406,.F.);
#406 = EDGE_LOOP('',(#407));
#407 = ORIENTED_EDGE('',*,*,#408,.T.);
#408 = EDGE_CURVE('',#409,#409,#411,.T.);
#409 = VERTEX_POINT('',#410);
#410 = CARTESIAN_POINT('',(2.7,-437.,27.25));
#411 = CIRCLE('',#412,2.7);
#412 = AXIS2_PLACEMENT_3D('',#413,#414,#415);
#413 = CARTESIAN_POINT('',(-9.769962616701E-15,-437.,27.25));
#414 = DIRECTION('',(0.,-1.,0.));
#415 = DIRECTION('',(1.,0.,-3.134747363648E-15));
#416 = PLANE('',#417);
#417 = AXIS2_PLACEMENT_3D('',#418,#419,#420);
#418 = CARTESIAN_POINT('',(0.780135,-437.,25.9324075));
#419 = DIRECTION('',(0.,1.,0.));
#420 = DIRECTION('',(0.,0.,1.));
#421 = ADVANCED_FACE('',(#422),#433,.F.);
#422 = FACE_BOUND('',#423,.F.);
#423 = EDGE_LOOP('',(#424,#430,#431,#432));
#424 = ORIENTED_EDGE('',*,*,#425,.F.);
#425 = EDGE_CURVE('',#361,#168,#426,.T.);
#426 = LINE('',#427,#428);
#427 = CARTESIAN_POINT('',(5.003457053,-438.396542947,36.407319408543));
#428 = VECTOR('',#429,1.);
#429 = DIRECTION('',(0.678598344546,0.678598344546,0.281084637715));
#430 = ORIENTED_EDGE('',*,*,#360,.T.);
#431 = ORIENTED_EDGE('',*,*,#112,.T.);
#432 = ORIENTED_EDGE('',*,*,#182,.F.);
#433 = PLANE('',#434);
#434 = AXIS2_PLACEMENT_3D('',#435,#436,#437);
#435 = CARTESIAN_POINT('',(7.046446609407,-436.5,37.046446609407));
#436 = DIRECTION('',(-0.5,0.707106781187,-0.5));
#437 = DIRECTION('',(-0.707106781187,-5.551115123126E-17,0.707106781187)
  );
#438 = ADVANCED_FACE('',(#439),#449,.T.);
#439 = FACE_BOUND('',#440,.T.);
#440 = EDGE_LOOP('',(#441,#442,#448));
#441 = ORIENTED_EDGE('',*,*,#175,.F.);
#442 = ORIENTED_EDGE('',*,*,#443,.T.);
#443 = EDGE_CURVE('',#166,#136,#444,.T.);
#444 = LINE('',#445,#446);
#445 = CARTESIAN_POINT('',(7.15,-404.75,37.4));
#446 = VECTOR('',#447,1.);
#447 = DIRECTION('',(-0.707106781187,0.707106781187,-4.3E-16));
#448 = ORIENTED_EDGE('',*,*,#135,.F.);
#449 = PLANE('',#450);
#450 = AXIS2_PLACEMENT_3D('',#451,#452,#453);
#451 = CARTESIAN_POINT('',(7.4,-405.,37.4));
#452 = DIRECTION('',(0.57735026919,0.57735026919,0.57735026919));
#453 = DIRECTION('',(1.110223024625E-16,0.707106781187,-0.707106781187)
  );
#454 = ADVANCED_FACE('',(#455),#480,.F.);
#455 = FACE_BOUND('',#456,.F.);
#456 = EDGE_LOOP('',(#457,#458,#466,#474));
#457 = ORIENTED_EDGE('',*,*,#143,.F.);
#458 = ORIENTED_EDGE('',*,*,#459,.F.);
#459 = EDGE_CURVE('',#460,#144,#462,.T.);
#460 = VERTEX_POINT('',#461);
#461 = CARTESIAN_POINT('',(-6.4,-404.,35.6));
#462 = LINE('',#463,#464);
#463 = CARTESIAN_POINT('',(-6.4,-404.,34.6));
#464 = VECTOR('',#465,1.);
#465 = DIRECTION('',(-6.7E-16,-1.1E-16,1.));
#466 = ORIENTED_EDGE('',*,*,#467,.T.);
#467 = EDGE_CURVE('',#460,#468,#470,.T.);
#468 = VERTEX_POINT('',#469);
#469 = CARTESIAN_POINT('',(6.4,-404.,35.6));
#470 = LINE('',#471,#472);
#471 = CARTESIAN_POINT('',(-7.4,-404.,35.6));
#472 = VECTOR('',#473,1.);
#473 = DIRECTION('',(1.,-5.5E-16,0.));
#474 = ORIENTED_EDGE('',*,*,#475,.T.);
#475 = EDGE_CURVE('',#468,#136,#476,.T.);
#476 = LINE('',#477,#478);
#477 = CARTESIAN_POINT('',(6.4,-404.,34.6));
#478 = VECTOR('',#479,1.);
#479 = DIRECTION('',(-6.7E-16,-1.1E-16,1.));
#480 = PLANE('',#481);
#481 = AXIS2_PLACEMENT_3D('',#482,#483,#484);
#482 = CARTESIAN_POINT('',(-7.4,-404.,34.6));
#483 = DIRECTION('',(3.4E-16,-1.,5.6E-16));
#484 = DIRECTION('',(-8.9E-16,5.6E-16,1.));
#485 = ADVANCED_FACE('',(#486,#543),#577,.T.);
#486 = FACE_BOUND('',#487,.T.);
#487 = EDGE_LOOP('',(#488,#498,#506,#514,#522,#530,#536,#537));
#488 = ORIENTED_EDGE('',*,*,#489,.T.);
#489 = EDGE_CURVE('',#490,#492,#494,.T.);
#490 = VERTEX_POINT('',#491);
#491 = CARTESIAN_POINT('',(7.4,-436.,17.1));
#492 = VERTEX_POINT('',#493);
#493 = CARTESIAN_POINT('',(7.4,-405.,17.1));
#494 = LINE('',#495,#496);
#495 = CARTESIAN_POINT('',(7.4,-450.,17.1));
#496 = VECTOR('',#497,1.);
#497 = DIRECTION('',(-3.3E-16,1.,-5.6E-16));
#498 = ORIENTED_EDGE('',*,*,#499,.T.);
#499 = EDGE_CURVE('',#492,#500,#502,.T.);
#500 = VERTEX_POINT('',#501);
#501 = CARTESIAN_POINT('',(7.4,-405.,19.9));
#502 = LINE('',#503,#504);
#503 = CARTESIAN_POINT('',(7.4,-405.,16.1));
#504 = VECTOR('',#505,1.);
#505 = DIRECTION('',(-6.7E-16,-1.1E-16,1.));
#506 = ORIENTED_EDGE('',*,*,#507,.T.);
#507 = EDGE_CURVE('',#500,#508,#510,.T.);
#508 = VERTEX_POINT('',#509);
#509 = CARTESIAN_POINT('',(7.4,-425.,19.9));
#510 = LINE('',#511,#512);
#511 = CARTESIAN_POINT('',(7.4,-404.,19.9));
#512 = VECTOR('',#513,1.);
#513 = DIRECTION('',(5.6E-16,-1.,5.6E-16));
#514 = ORIENTED_EDGE('',*,*,#515,.T.);
#515 = EDGE_CURVE('',#508,#516,#518,.T.);
#516 = VERTEX_POINT('',#517);
#517 = CARTESIAN_POINT('',(7.4,-425.,34.6));
#518 = LINE('',#519,#520);
#519 = CARTESIAN_POINT('',(7.4,-425.,19.9));
#520 = VECTOR('',#521,1.);
#521 = DIRECTION('',(-6.7E-16,-3.3E-16,1.));
#522 = ORIENTED_EDGE('',*,*,#523,.T.);
#523 = EDGE_CURVE('',#516,#524,#526,.T.);
#524 = VERTEX_POINT('',#525);
#525 = CARTESIAN_POINT('',(7.4,-405.,34.6));
#526 = LINE('',#527,#528);
#527 = CARTESIAN_POINT('',(7.4,-440.,34.6));
#528 = VECTOR('',#529,1.);
#529 = DIRECTION('',(-5.6E-16,1.,-5.6E-16));
#530 = ORIENTED_EDGE('',*,*,#531,.T.);
#531 = EDGE_CURVE('',#524,#166,#532,.T.);
#532 = LINE('',#533,#534);
#533 = CARTESIAN_POINT('',(7.4,-405.,34.6));
#534 = VECTOR('',#535,1.);
#535 = DIRECTION('',(-6.7E-16,-1.1E-16,1.));
#536 = ORIENTED_EDGE('',*,*,#165,.T.);
#537 = ORIENTED_EDGE('',*,*,#538,.F.);
#538 = EDGE_CURVE('',#490,#168,#539,.T.);
#539 = LINE('',#540,#541);
#540 = CARTESIAN_POINT('',(7.4,-436.,17.1));
#541 = VECTOR('',#542,1.);
#542 = DIRECTION('',(2.2E-16,0.,1.));
#543 = FACE_BOUND('',#544,.T.);
#544 = EDGE_LOOP('',(#545,#555,#563,#571));
#545 = ORIENTED_EDGE('',*,*,#546,.F.);
#546 = EDGE_CURVE('',#547,#549,#551,.T.);
#547 = VERTEX_POINT('',#548);
#548 = CARTESIAN_POINT('',(7.4,-434.,24.25));
#549 = VERTEX_POINT('',#550);
#550 = CARTESIAN_POINT('',(7.4,-431.,24.25));
#551 = LINE('',#552,#553);
#552 = CARTESIAN_POINT('',(7.4,-443.,24.25));
#553 = VECTOR('',#554,1.);
#554 = DIRECTION('',(2.2E-16,1.,-1.1E-16));
#555 = ORIENTED_EDGE('',*,*,#556,.F.);
#556 = EDGE_CURVE('',#557,#547,#559,.T.);
#557 = VERTEX_POINT('',#558);
#558 = CARTESIAN_POINT('',(7.4,-434.,30.25));
#559 = LINE('',#560,#561);
#560 = CARTESIAN_POINT('',(7.4,-434.,27.25));
#561 = VECTOR('',#562,1.);
#562 = DIRECTION('',(3.3E-16,-1.1E-16,-1.));
#563 = ORIENTED_EDGE('',*,*,#564,.T.);
#564 = EDGE_CURVE('',#557,#565,#567,.T.);
#565 = VERTEX_POINT('',#566);
#566 = CARTESIAN_POINT('',(7.4,-431.,30.25));
#567 = LINE('',#568,#569);
#568 = CARTESIAN_POINT('',(7.4,-443.,30.25));
#569 = VECTOR('',#570,1.);
#570 = DIRECTION('',(2.2E-16,1.,-1.1E-16));
#571 = ORIENTED_EDGE('',*,*,#572,.F.);
#572 = EDGE_CURVE('',#549,#565,#573,.T.);
#573 = LINE('',#574,#575);
#574 = CARTESIAN_POINT('',(7.4,-431.,24.25));
#575 = VECTOR('',#576,1.);
#576 = DIRECTION('',(-3.3E-16,-1.1E-16,1.));
#577 = PLANE('',#578);
#578 = AXIS2_PLACEMENT_3D('',#579,#580,#581);
#579 = CARTESIAN_POINT('',(7.4,-421.3734439834,27.25));
#580 = DIRECTION('',(1.,4.053177680668E-16,2.905530364619E-16));
#581 = DIRECTION('',(-4.053177680668E-16,1.,0.));
#582 = ADVANCED_FACE('',(#583),#602,.F.);
#583 = FACE_BOUND('',#584,.F.);
#584 = EDGE_LOOP('',(#585,#593,#594,#595));
#585 = ORIENTED_EDGE('',*,*,#586,.F.);
#586 = EDGE_CURVE('',#197,#587,#589,.T.);
#587 = VERTEX_POINT('',#588);
#588 = CARTESIAN_POINT('',(-2.04281036531E-14,-412.5,34.6));
#589 = LINE('',#590,#591);
#590 = CARTESIAN_POINT('',(-1.50990331349E-14,-412.5,38.4));
#591 = VECTOR('',#592,1.);
#592 = DIRECTION('',(8.9E-16,3.3E-16,-1.));
#593 = ORIENTED_EDGE('',*,*,#206,.F.);
#594 = ORIENTED_EDGE('',*,*,#586,.T.);
#595 = ORIENTED_EDGE('',*,*,#596,.T.);
#596 = EDGE_CURVE('',#587,#587,#597,.T.);
#597 = CIRCLE('',#598,2.5);
#598 = AXIS2_PLACEMENT_3D('',#599,#600,#601);
#599 = CARTESIAN_POINT('',(-1.42108547152E-14,-410.,34.6));
#600 = DIRECTION('',(2.2E-16,7.8E-16,1.));
#601 = DIRECTION('',(7.8E-16,-1.,7.8E-16));
#602 = CYLINDRICAL_SURFACE('',#603,2.5);
#603 = AXIS2_PLACEMENT_3D('',#604,#605,#606);
#604 = CARTESIAN_POINT('',(-1.68753899743E-14,-410.,38.4));
#605 = DIRECTION('',(-6.7E-16,-1.1E-16,1.));
#606 = DIRECTION('',(7.8E-16,-1.,-1.1E-16));
#607 = ADVANCED_FACE('',(#608),#619,.F.);
#608 = FACE_BOUND('',#609,.T.);
#609 = EDGE_LOOP('',(#610,#616,#617,#618));
#610 = ORIENTED_EDGE('',*,*,#611,.F.);
#611 = EDGE_CURVE('',#393,#263,#612,.T.);
#612 = LINE('',#613,#614);
#613 = CARTESIAN_POINT('',(-6.93950428678,-436.4604957132,
    17.290743569831));
#614 = VECTOR('',#615,1.);
#615 = DIRECTION('',(-0.678598344546,0.678598344546,-0.281084637715));
#616 = ORIENTED_EDGE('',*,*,#400,.T.);
#617 = ORIENTED_EDGE('',*,*,#318,.F.);
#618 = ORIENTED_EDGE('',*,*,#270,.F.);
#619 = PLANE('',#620);
#620 = AXIS2_PLACEMENT_3D('',#621,#622,#623);
#621 = CARTESIAN_POINT('',(-6.9,-436.5,17.1));
#622 = DIRECTION('',(0.707106781187,0.707106781187,0.));
#623 = DIRECTION('',(-1.1E-16,1.1E-16,-1.));
#624 = ADVANCED_FACE('',(#625),#636,.T.);
#625 = FACE_BOUND('',#626,.F.);
#626 = EDGE_LOOP('',(#627,#633,#634,#635));
#627 = ORIENTED_EDGE('',*,*,#628,.F.);
#628 = EDGE_CURVE('',#460,#223,#629,.T.);
#629 = LINE('',#630,#631);
#630 = CARTESIAN_POINT('',(-7.066666666667,-404.6666666666,
    34.933333333333));
#631 = VECTOR('',#632,1.);
#632 = DIRECTION('',(-0.57735026919,-0.57735026919,-0.57735026919));
#633 = ORIENTED_EDGE('',*,*,#459,.T.);
#634 = ORIENTED_EDGE('',*,*,#343,.F.);
#635 = ORIENTED_EDGE('',*,*,#222,.F.);
#636 = PLANE('',#637);
#637 = AXIS2_PLACEMENT_3D('',#638,#639,#640);
#638 = CARTESIAN_POINT('',(-6.9,-404.5,34.6));
#639 = DIRECTION('',(-0.707106781187,0.707106781187,-3.9E-16));
#640 = DIRECTION('',(6.607716446628E-16,1.092283553372E-16,-1.));
#641 = ADVANCED_FACE('',(#642),#667,.T.);
#642 = FACE_BOUND('',#643,.T.);
#643 = EDGE_LOOP('',(#644,#654,#660,#661));
#644 = ORIENTED_EDGE('',*,*,#645,.F.);
#645 = EDGE_CURVE('',#646,#648,#650,.T.);
#646 = VERTEX_POINT('',#647);
#647 = CARTESIAN_POINT('',(-6.4,-436.,16.1));
#648 = VERTEX_POINT('',#649);
#649 = CARTESIAN_POINT('',(-6.4,-405.,16.1));
#650 = LINE('',#651,#652);
#651 = CARTESIAN_POINT('',(-6.4,-450.,16.1));
#652 = VECTOR('',#653,1.);
#653 = DIRECTION('',(-3.3E-16,1.,-5.6E-16));
#654 = ORIENTED_EDGE('',*,*,#655,.F.);
#655 = EDGE_CURVE('',#263,#646,#656,.T.);
#656 = LINE('',#657,#658);
#657 = CARTESIAN_POINT('',(-7.4,-436.,17.1));
#658 = VECTOR('',#659,1.);
#659 = DIRECTION('',(0.707106781187,0.,-0.707106781187));
#660 = ORIENTED_EDGE('',*,*,#262,.T.);
#661 = ORIENTED_EDGE('',*,*,#662,.F.);
#662 = EDGE_CURVE('',#648,#255,#663,.T.);
#663 = LINE('',#664,#665);
#664 = CARTESIAN_POINT('',(-6.9,-405.,16.6));
#665 = VECTOR('',#666,1.);
#666 = DIRECTION('',(-0.707106781187,-3.46E-15,0.707106781187));
#667 = PLANE('',#668);
#668 = AXIS2_PLACEMENT_3D('',#669,#670,#671);
#669 = CARTESIAN_POINT('',(-6.9,-450.,16.6));
#670 = DIRECTION('',(-0.707106781187,1.7E-16,-0.707106781187));
#671 = DIRECTION('',(2.302081528017E-16,1.,1.020815280171E-17));
#672 = ADVANCED_FACE('',(#673,#689),#692,.F.);
#673 = FACE_BOUND('',#674,.F.);
#674 = EDGE_LOOP('',(#675,#676,#682,#683));
#675 = ORIENTED_EDGE('',*,*,#230,.F.);
#676 = ORIENTED_EDGE('',*,*,#677,.T.);
#677 = EDGE_CURVE('',#231,#516,#678,.T.);
#678 = LINE('',#679,#680);
#679 = CARTESIAN_POINT('',(-7.4,-425.,34.6));
#680 = VECTOR('',#681,1.);
#681 = DIRECTION('',(1.,-5.5E-16,-2.2E-16));
#682 = ORIENTED_EDGE('',*,*,#523,.T.);
#683 = ORIENTED_EDGE('',*,*,#684,.F.);
#684 = EDGE_CURVE('',#223,#524,#685,.T.);
#685 = LINE('',#686,#687);
#686 = CARTESIAN_POINT('',(-7.4,-405.,34.6));
#687 = VECTOR('',#688,1.);
#688 = DIRECTION('',(1.,-5.5E-16,0.));
#689 = FACE_BOUND('',#690,.F.);
#690 = EDGE_LOOP('',(#691));
#691 = ORIENTED_EDGE('',*,*,#596,.F.);
#692 = PLANE('',#693);
#693 = AXIS2_PLACEMENT_3D('',#694,#695,#696);
#694 = CARTESIAN_POINT('',(-7.4,-440.,34.6));
#695 = DIRECTION('',(-6.7E-16,-1.1E-16,1.));
#696 = DIRECTION('',(-5.6E-16,1.,1.1E-16));
#697 = ADVANCED_FACE('',(#698),#723,.T.);
#698 = FACE_BOUND('',#699,.T.);
#699 = EDGE_LOOP('',(#700,#708,#709,#717));
#700 = ORIENTED_EDGE('',*,*,#701,.T.);
#701 = EDGE_CURVE('',#702,#255,#704,.T.);
#702 = VERTEX_POINT('',#703);
#703 = CARTESIAN_POINT('',(-6.4,-404.,17.1));
#704 = LINE('',#705,#706);
#705 = CARTESIAN_POINT('',(-6.65,-404.25,17.1));
#706 = VECTOR('',#707,1.);
#707 = DIRECTION('',(-0.707106781187,-0.707106781187,3.02E-15));
#708 = ORIENTED_EDGE('',*,*,#254,.T.);
#709 = ORIENTED_EDGE('',*,*,#710,.F.);
#710 = EDGE_CURVE('',#711,#247,#713,.T.);
#711 = VERTEX_POINT('',#712);
#712 = CARTESIAN_POINT('',(-6.4,-404.,18.9));
#713 = LINE('',#714,#715);
#714 = CARTESIAN_POINT('',(-6.433333333333,-404.0333333333,
    18.933333333333));
#715 = VECTOR('',#716,1.);
#716 = DIRECTION('',(-0.57735026919,-0.57735026919,0.57735026919));
#717 = ORIENTED_EDGE('',*,*,#718,.F.);
#718 = EDGE_CURVE('',#702,#711,#719,.T.);
#719 = LINE('',#720,#721);
#720 = CARTESIAN_POINT('',(-6.4,-404.,16.1));
#721 = VECTOR('',#722,1.);
#722 = DIRECTION('',(-6.7E-16,-1.1E-16,1.));
#723 = PLANE('',#724);
#724 = AXIS2_PLACEMENT_3D('',#725,#726,#727);
#725 = CARTESIAN_POINT('',(-6.9,-404.5,16.1));
#726 = DIRECTION('',(-0.707106781187,0.707106781187,-3.9E-16));
#727 = DIRECTION('',(-6.607716446628E-16,-1.092283553372E-16,1.));
#728 = ADVANCED_FACE('',(#729,#740),#751,.F.);
#729 = FACE_BOUND('',#730,.F.);
#730 = EDGE_LOOP('',(#731,#737,#738,#739));
#731 = ORIENTED_EDGE('',*,*,#732,.T.);
#732 = EDGE_CURVE('',#239,#508,#733,.T.);
#733 = LINE('',#734,#735);
#734 = CARTESIAN_POINT('',(-7.4,-425.,19.9));
#735 = VECTOR('',#736,1.);
#736 = DIRECTION('',(1.,-5.5E-16,-2.2E-16));
#737 = ORIENTED_EDGE('',*,*,#515,.T.);
#738 = ORIENTED_EDGE('',*,*,#677,.F.);
#739 = ORIENTED_EDGE('',*,*,#238,.F.);
#740 = FACE_BOUND('',#741,.F.);
#741 = EDGE_LOOP('',(#742));
#742 = ORIENTED_EDGE('',*,*,#743,.T.);
#743 = EDGE_CURVE('',#744,#744,#746,.T.);
#744 = VERTEX_POINT('',#745);
#745 = CARTESIAN_POINT('',(1.7,-425.,27.25));
#746 = CIRCLE('',#747,1.7);
#747 = AXIS2_PLACEMENT_3D('',#748,#749,#750);
#748 = CARTESIAN_POINT('',(-1.7763568394E-15,-425.,27.25));
#749 = DIRECTION('',(1.1E-16,1.,-1.1E-16));
#750 = DIRECTION('',(1.,-1.1E-16,0.));
#751 = PLANE('',#752);
#752 = AXIS2_PLACEMENT_3D('',#753,#754,#755);
#753 = CARTESIAN_POINT('',(-7.4,-425.,19.9));
#754 = DIRECTION('',(3.4E-16,-1.,5.6E-16));
#755 = DIRECTION('',(-8.9E-16,5.6E-16,1.));
#756 = ADVANCED_FACE('',(#757,#768),#779,.F.);
#757 = FACE_BOUND('',#758,.F.);
#758 = EDGE_LOOP('',(#759,#760,#766,#767));
#759 = ORIENTED_EDGE('',*,*,#246,.F.);
#760 = ORIENTED_EDGE('',*,*,#761,.T.);
#761 = EDGE_CURVE('',#247,#500,#762,.T.);
#762 = LINE('',#763,#764);
#763 = CARTESIAN_POINT('',(-7.4,-405.,19.9));
#764 = VECTOR('',#765,1.);
#765 = DIRECTION('',(1.,-5.5E-16,0.));
#766 = ORIENTED_EDGE('',*,*,#507,.T.);
#767 = ORIENTED_EDGE('',*,*,#732,.F.);
#768 = FACE_BOUND('',#769,.F.);
#769 = EDGE_LOOP('',(#770));
#770 = ORIENTED_EDGE('',*,*,#771,.T.);
#771 = EDGE_CURVE('',#772,#772,#774,.T.);
#772 = VERTEX_POINT('',#773);
#773 = CARTESIAN_POINT('',(-7.105427357601E-15,-412.5,19.9));
#774 = CIRCLE('',#775,2.5);
#775 = AXIS2_PLACEMENT_3D('',#776,#777,#778);
#776 = CARTESIAN_POINT('',(-4.440892098501E-15,-410.,19.9));
#777 = DIRECTION('',(2.2E-16,7.8E-16,1.));
#778 = DIRECTION('',(7.8E-16,-1.,7.8E-16));
#779 = PLANE('',#780);
#780 = AXIS2_PLACEMENT_3D('',#781,#782,#783);
#781 = CARTESIAN_POINT('',(-7.4,-404.,19.9));
#782 = DIRECTION('',(6.7E-16,1.1E-16,-1.));
#783 = DIRECTION('',(5.6E-16,-1.,-1.1E-16));
#784 = ADVANCED_FACE('',(#785),#801,.T.);
#785 = FACE_BOUND('',#786,.T.);
#786 = EDGE_LOOP('',(#787,#793,#794,#800));
#787 = ORIENTED_EDGE('',*,*,#788,.F.);
#788 = EDGE_CURVE('',#547,#279,#789,.T.);
#789 = LINE('',#790,#791);
#790 = CARTESIAN_POINT('',(7.4,-434.,24.25));
#791 = VECTOR('',#792,1.);
#792 = DIRECTION('',(-1.,2.2E-16,-1.1E-16));
#793 = ORIENTED_EDGE('',*,*,#546,.T.);
#794 = ORIENTED_EDGE('',*,*,#795,.T.);
#795 = EDGE_CURVE('',#549,#281,#796,.T.);
#796 = LINE('',#797,#798);
#797 = CARTESIAN_POINT('',(7.4,-431.,24.25));
#798 = VECTOR('',#799,1.);
#799 = DIRECTION('',(-1.,2.2E-16,-1.1E-16));
#800 = ORIENTED_EDGE('',*,*,#278,.F.);
#801 = PLANE('',#802);
#802 = AXIS2_PLACEMENT_3D('',#803,#804,#805);
#803 = CARTESIAN_POINT('',(7.4,-443.,24.25));
#804 = DIRECTION('',(-1.1E-16,1.1E-16,1.));
#805 = DIRECTION('',(-1.,2.2E-16,-1.1E-16));
#806 = ADVANCED_FACE('',(#807,#818),#829,.F.);
#807 = FACE_BOUND('',#808,.F.);
#808 = EDGE_LOOP('',(#809,#810,#811,#812));
#809 = ORIENTED_EDGE('',*,*,#572,.F.);
#810 = ORIENTED_EDGE('',*,*,#795,.T.);
#811 = ORIENTED_EDGE('',*,*,#288,.T.);
#812 = ORIENTED_EDGE('',*,*,#813,.F.);
#813 = EDGE_CURVE('',#565,#289,#814,.T.);
#814 = LINE('',#815,#816);
#815 = CARTESIAN_POINT('',(7.4,-431.,30.25));
#816 = VECTOR('',#817,1.);
#817 = DIRECTION('',(-1.,2.2E-16,-1.1E-16));
#818 = FACE_BOUND('',#819,.F.);
#819 = EDGE_LOOP('',(#820));
#820 = ORIENTED_EDGE('',*,*,#821,.F.);
#821 = EDGE_CURVE('',#822,#822,#824,.T.);
#822 = VERTEX_POINT('',#823);
#823 = CARTESIAN_POINT('',(1.7,-431.,27.25));
#824 = CIRCLE('',#825,1.7);
#825 = AXIS2_PLACEMENT_3D('',#826,#827,#828);
#826 = CARTESIAN_POINT('',(-7.105427357601E-15,-431.,27.25));
#827 = DIRECTION('',(0.,1.,-6.7E-16));
#828 = DIRECTION('',(1.,1.474E-31,2.2E-16));
#829 = PLANE('',#830);
#830 = AXIS2_PLACEMENT_3D('',#831,#832,#833);
#831 = CARTESIAN_POINT('',(7.4,-431.,24.25));
#832 = DIRECTION('',(2.2E-16,1.,-1.1E-16));
#833 = DIRECTION('',(-3.3E-16,1.1E-16,1.));
#834 = ADVANCED_FACE('',(#835),#846,.F.);
#835 = FACE_BOUND('',#836,.F.);
#836 = EDGE_LOOP('',(#837,#843,#844,#845));
#837 = ORIENTED_EDGE('',*,*,#838,.F.);
#838 = EDGE_CURVE('',#557,#297,#839,.T.);
#839 = LINE('',#840,#841);
#840 = CARTESIAN_POINT('',(7.4,-434.,30.25));
#841 = VECTOR('',#842,1.);
#842 = DIRECTION('',(-1.,2.2E-16,-1.1E-16));
#843 = ORIENTED_EDGE('',*,*,#564,.T.);
#844 = ORIENTED_EDGE('',*,*,#813,.T.);
#845 = ORIENTED_EDGE('',*,*,#296,.F.);
#846 = PLANE('',#847);
#847 = AXIS2_PLACEMENT_3D('',#848,#849,#850);
#848 = CARTESIAN_POINT('',(7.4,-443.,30.25));
#849 = DIRECTION('',(-1.1E-16,1.1E-16,1.));
#850 = DIRECTION('',(-1.,2.2E-16,-1.1E-16));
#851 = ADVANCED_FACE('',(#852,#858),#869,.T.);
#852 = FACE_BOUND('',#853,.T.);
#853 = EDGE_LOOP('',(#854,#855,#856,#857));
#854 = ORIENTED_EDGE('',*,*,#838,.F.);
#855 = ORIENTED_EDGE('',*,*,#556,.T.);
#856 = ORIENTED_EDGE('',*,*,#788,.T.);
#857 = ORIENTED_EDGE('',*,*,#304,.F.);
#858 = FACE_BOUND('',#859,.T.);
#859 = EDGE_LOOP('',(#860));
#860 = ORIENTED_EDGE('',*,*,#861,.T.);
#861 = EDGE_CURVE('',#862,#862,#864,.T.);
#862 = VERTEX_POINT('',#863);
#863 = CARTESIAN_POINT('',(1.7,-434.,27.25));
#864 = CIRCLE('',#865,1.7);
#865 = AXIS2_PLACEMENT_3D('',#866,#867,#868);
#866 = CARTESIAN_POINT('',(-9.769962616701E-15,-434.,27.25));
#867 = DIRECTION('',(0.,-1.,6.7E-16));
#868 = DIRECTION('',(1.,1.474E-31,2.2E-16));
#869 = PLANE('',#870);
#870 = AXIS2_PLACEMENT_3D('',#871,#872,#873);
#871 = CARTESIAN_POINT('',(7.4,-434.,24.25));
#872 = DIRECTION('',(2.2E-16,1.,-1.1E-16));
#873 = DIRECTION('',(-3.3E-16,1.1E-16,1.));
#874 = ADVANCED_FACE('',(#875),#886,.F.);
#875 = FACE_BOUND('',#876,.F.);
#876 = EDGE_LOOP('',(#877,#878,#879,#885));
#877 = ORIENTED_EDGE('',*,*,#611,.F.);
#878 = ORIENTED_EDGE('',*,*,#392,.T.);
#879 = ORIENTED_EDGE('',*,*,#880,.T.);
#880 = EDGE_CURVE('',#385,#646,#881,.T.);
#881 = LINE('',#882,#883);
#882 = CARTESIAN_POINT('',(-5.647734061254,-437.8161306318,
    17.916130631831));
#883 = VECTOR('',#884,1.);
#884 = DIRECTION('',(-0.281084637715,0.678598344546,-0.678598344546));
#885 = ORIENTED_EDGE('',*,*,#655,.F.);
#886 = PLANE('',#887);
#887 = AXIS2_PLACEMENT_3D('',#888,#889,#890);
#888 = CARTESIAN_POINT('',(-7.046446609407,-436.5,17.453553390593));
#889 = DIRECTION('',(0.5,0.707106781187,0.5));
#890 = DIRECTION('',(0.707106781187,0.,-0.707106781187));
#891 = ADVANCED_FACE('',(#892),#910,.T.);
#892 = FACE_BOUND('',#893,.T.);
#893 = EDGE_LOOP('',(#894,#902,#903,#904));
#894 = ORIENTED_EDGE('',*,*,#895,.F.);
#895 = EDGE_CURVE('',#377,#896,#898,.T.);
#896 = VERTEX_POINT('',#897);
#897 = CARTESIAN_POINT('',(6.4,-436.,16.1));
#898 = LINE('',#899,#900);
#899 = CARTESIAN_POINT('',(6.153388932034,-436.5953717849,
    16.695371784915));
#900 = VECTOR('',#901,1.);
#901 = DIRECTION('',(0.281084637715,0.678598344546,-0.678598344546));
#902 = ORIENTED_EDGE('',*,*,#384,.T.);
#903 = ORIENTED_EDGE('',*,*,#880,.T.);
#904 = ORIENTED_EDGE('',*,*,#905,.F.);
#905 = EDGE_CURVE('',#896,#646,#906,.T.);
#906 = LINE('',#907,#908);
#907 = CARTESIAN_POINT('',(6.4,-436.,16.1));
#908 = VECTOR('',#909,1.);
#909 = DIRECTION('',(-1.,0.,-6.7E-16));
#910 = PLANE('',#911);
#911 = AXIS2_PLACEMENT_3D('',#912,#913,#914);
#912 = CARTESIAN_POINT('',(6.4,-436.5,16.6));
#913 = DIRECTION('',(4.765398740951E-16,-0.707106781187,-0.707106781187)
  );
#914 = DIRECTION('',(-1.,-1.964576478439E-18,-6.719645764784E-16));
#915 = ADVANCED_FACE('',(#916),#927,.F.);
#916 = FACE_BOUND('',#917,.F.);
#917 = EDGE_LOOP('',(#918,#924,#925,#926));
#918 = ORIENTED_EDGE('',*,*,#919,.F.);
#919 = EDGE_CURVE('',#369,#490,#920,.T.);
#920 = LINE('',#921,#922);
#921 = CARTESIAN_POINT('',(6.93950428678,-436.4604957132,17.290743569831
    ));
#922 = VECTOR('',#923,1.);
#923 = DIRECTION('',(0.678598344546,0.678598344546,-0.281084637715));
#924 = ORIENTED_EDGE('',*,*,#368,.T.);
#925 = ORIENTED_EDGE('',*,*,#425,.T.);
#926 = ORIENTED_EDGE('',*,*,#538,.F.);
#927 = PLANE('',#928);
#928 = AXIS2_PLACEMENT_3D('',#929,#930,#931);
#929 = CARTESIAN_POINT('',(6.9,-436.5,17.1));
#930 = DIRECTION('',(-0.707106781187,0.707106781187,-1.121270291989E-16)
  );
#931 = DIRECTION('',(3.071421729919E-17,1.892857827008E-16,1.));
#932 = ADVANCED_FACE('',(#933),#944,.T.);
#933 = FACE_BOUND('',#934,.T.);
#934 = EDGE_LOOP('',(#935,#936,#937,#938));
#935 = ORIENTED_EDGE('',*,*,#919,.F.);
#936 = ORIENTED_EDGE('',*,*,#376,.T.);
#937 = ORIENTED_EDGE('',*,*,#895,.T.);
#938 = ORIENTED_EDGE('',*,*,#939,.F.);
#939 = EDGE_CURVE('',#490,#896,#940,.T.);
#940 = LINE('',#941,#942);
#941 = CARTESIAN_POINT('',(7.4,-436.,17.1));
#942 = VECTOR('',#943,1.);
#943 = DIRECTION('',(-0.707106781187,0.,-0.707106781187));
#944 = PLANE('',#945);
#945 = AXIS2_PLACEMENT_3D('',#946,#947,#948);
#946 = CARTESIAN_POINT('',(7.046446609407,-436.5,17.453553390593));
#947 = DIRECTION('',(0.5,-0.707106781187,-0.5));
#948 = DIRECTION('',(-0.707106781187,0.,-0.707106781187));
#949 = ADVANCED_FACE('',(#950),#969,.F.);
#950 = FACE_BOUND('',#951,.T.);
#951 = EDGE_LOOP('',(#952,#960,#961,#962));
#952 = ORIENTED_EDGE('',*,*,#953,.F.);
#953 = EDGE_CURVE('',#409,#954,#956,.T.);
#954 = VERTEX_POINT('',#955);
#955 = CARTESIAN_POINT('',(1.7,-436.,27.25));
#956 = LINE('',#957,#958);
#957 = CARTESIAN_POINT('',(1.7,-436.,27.25));
#958 = VECTOR('',#959,1.);
#959 = DIRECTION('',(-0.707106781187,0.707106781187,2.844638101615E-15)
  );
#960 = ORIENTED_EDGE('',*,*,#408,.T.);
#961 = ORIENTED_EDGE('',*,*,#953,.T.);
#962 = ORIENTED_EDGE('',*,*,#963,.F.);
#963 = EDGE_CURVE('',#954,#954,#964,.T.);
#964 = CIRCLE('',#965,1.7);
#965 = AXIS2_PLACEMENT_3D('',#966,#967,#968);
#966 = CARTESIAN_POINT('',(-9.769962616701E-15,-436.,27.25));
#967 = DIRECTION('',(0.,-1.,0.));
#968 = DIRECTION('',(1.,0.,-3.134747363648E-15));
#969 = CONICAL_SURFACE('',#970,1.7,0.785398163397);
#970 = AXIS2_PLACEMENT_3D('',#971,#972,#973);
#971 = CARTESIAN_POINT('',(-9.769962616701E-15,-436.,27.25));
#972 = DIRECTION('',(-0.,-1.,-0.));
#973 = DIRECTION('',(1.,0.,-3.134747363648E-15));
#974 = ADVANCED_FACE('',(#975),#986,.F.);
#975 = FACE_BOUND('',#976,.T.);
#976 = EDGE_LOOP('',(#977,#983,#984,#985));
#977 = ORIENTED_EDGE('',*,*,#978,.F.);
#978 = EDGE_CURVE('',#468,#524,#979,.T.);
#979 = LINE('',#980,#981);
#980 = CARTESIAN_POINT('',(4.6,-402.2,37.4));
#981 = VECTOR('',#982,1.);
#982 = DIRECTION('',(0.57735026919,-0.57735026919,-0.57735026919));
#983 = ORIENTED_EDGE('',*,*,#475,.T.);
#984 = ORIENTED_EDGE('',*,*,#443,.F.);
#985 = ORIENTED_EDGE('',*,*,#531,.F.);
#986 = PLANE('',#987);
#987 = AXIS2_PLACEMENT_3D('',#988,#989,#990);
#988 = CARTESIAN_POINT('',(6.9,-404.5,34.6));
#989 = DIRECTION('',(-0.707106781187,-0.707106781187,3.9E-16));
#990 = DIRECTION('',(4.228355337246E-18,-5.557716446628E-16,-1.));
#991 = ADVANCED_FACE('',(#992),#998,.T.);
#992 = FACE_BOUND('',#993,.T.);
#993 = EDGE_LOOP('',(#994,#995,#996,#997));
#994 = ORIENTED_EDGE('',*,*,#628,.F.);
#995 = ORIENTED_EDGE('',*,*,#467,.T.);
#996 = ORIENTED_EDGE('',*,*,#978,.T.);
#997 = ORIENTED_EDGE('',*,*,#684,.F.);
#998 = PLANE('',#999);
#999 = AXIS2_PLACEMENT_3D('',#1000,#1001,#1002);
#1000 = CARTESIAN_POINT('',(-7.4,-404.5,35.1));
#1001 = DIRECTION('',(4.8E-16,0.707106781187,-0.707106781187));
#1002 = DIRECTION('',(1.,-6.144112549695E-16,6.441125496954E-17));
#1003 = ADVANCED_FACE('',(#1004),#1022,.F.);
#1004 = FACE_BOUND('',#1005,.F.);
#1005 = EDGE_LOOP('',(#1006,#1014,#1015,#1016));
#1006 = ORIENTED_EDGE('',*,*,#1007,.F.);
#1007 = EDGE_CURVE('',#896,#1008,#1010,.T.);
#1008 = VERTEX_POINT('',#1009);
#1009 = CARTESIAN_POINT('',(6.4,-405.,16.1));
#1010 = LINE('',#1011,#1012);
#1011 = CARTESIAN_POINT('',(6.4,-450.,16.1));
#1012 = VECTOR('',#1013,1.);
#1013 = DIRECTION('',(-3.3E-16,1.,-5.6E-16));
#1014 = ORIENTED_EDGE('',*,*,#939,.F.);
#1015 = ORIENTED_EDGE('',*,*,#489,.T.);
#1016 = ORIENTED_EDGE('',*,*,#1017,.F.);
#1017 = EDGE_CURVE('',#1008,#492,#1018,.T.);
#1018 = LINE('',#1019,#1020);
#1019 = CARTESIAN_POINT('',(6.9,-405.,16.6));
#1020 = VECTOR('',#1021,1.);
#1021 = DIRECTION('',(0.707106781187,4.46E-15,0.707106781187));
#1022 = PLANE('',#1023);
#1023 = AXIS2_PLACEMENT_3D('',#1024,#1025,#1026);
#1024 = CARTESIAN_POINT('',(6.9,-450.,16.6));
#1025 = DIRECTION('',(-0.707106781187,4.1E-16,0.707106781187));
#1026 = DIRECTION('',(-1.550862197135E-16,1.,-7.349137802865E-16));
#1027 = ADVANCED_FACE('',(#1028),#1053,.F.);
#1028 = FACE_BOUND('',#1029,.F.);
#1029 = EDGE_LOOP('',(#1030,#1038,#1039,#1047));
#1030 = ORIENTED_EDGE('',*,*,#1031,.T.);
#1031 = EDGE_CURVE('',#1032,#492,#1034,.T.);
#1032 = VERTEX_POINT('',#1033);
#1033 = CARTESIAN_POINT('',(6.4,-404.,17.1));
#1034 = LINE('',#1035,#1036);
#1035 = CARTESIAN_POINT('',(6.65,-404.25,17.1));
#1036 = VECTOR('',#1037,1.);
#1037 = DIRECTION('',(0.707106781187,-0.707106781187,-4.E-15));
#1038 = ORIENTED_EDGE('',*,*,#499,.T.);
#1039 = ORIENTED_EDGE('',*,*,#1040,.F.);
#1040 = EDGE_CURVE('',#1041,#500,#1043,.T.);
#1041 = VERTEX_POINT('',#1042);
#1042 = CARTESIAN_POINT('',(6.4,-404.,18.9));
#1043 = LINE('',#1044,#1045);
#1044 = CARTESIAN_POINT('',(3.966666666667,-401.5666666666,
    16.466666666667));
#1045 = VECTOR('',#1046,1.);
#1046 = DIRECTION('',(0.57735026919,-0.57735026919,0.57735026919));
#1047 = ORIENTED_EDGE('',*,*,#1048,.F.);
#1048 = EDGE_CURVE('',#1032,#1041,#1049,.T.);
#1049 = LINE('',#1050,#1051);
#1050 = CARTESIAN_POINT('',(6.4,-404.,16.1));
#1051 = VECTOR('',#1052,1.);
#1052 = DIRECTION('',(-6.7E-16,-1.1E-16,1.));
#1053 = PLANE('',#1054);
#1054 = AXIS2_PLACEMENT_3D('',#1055,#1056,#1057);
#1055 = CARTESIAN_POINT('',(6.9,-404.5,16.1));
#1056 = DIRECTION('',(-0.707106781187,-0.707106781187,3.9E-16));
#1057 = DIRECTION('',(-4.228355337246E-18,5.557716446628E-16,1.));
#1058 = ADVANCED_FACE('',(#1059,#1070),#1081,.F.);
#1059 = FACE_BOUND('',#1060,.F.);
#1060 = EDGE_LOOP('',(#1061,#1062,#1063,#1064));
#1061 = ORIENTED_EDGE('',*,*,#645,.F.);
#1062 = ORIENTED_EDGE('',*,*,#905,.F.);
#1063 = ORIENTED_EDGE('',*,*,#1007,.T.);
#1064 = ORIENTED_EDGE('',*,*,#1065,.F.);
#1065 = EDGE_CURVE('',#648,#1008,#1066,.T.);
#1066 = LINE('',#1067,#1068);
#1067 = CARTESIAN_POINT('',(-7.4,-405.,16.1));
#1068 = VECTOR('',#1069,1.);
#1069 = DIRECTION('',(1.,-5.5E-16,0.));
#1070 = FACE_BOUND('',#1071,.F.);
#1071 = EDGE_LOOP('',(#1072));
#1072 = ORIENTED_EDGE('',*,*,#1073,.F.);
#1073 = EDGE_CURVE('',#1074,#1074,#1076,.T.);
#1074 = VERTEX_POINT('',#1075);
#1075 = CARTESIAN_POINT('',(-1.06581410364E-14,-413.5,16.1));
#1076 = CIRCLE('',#1077,3.5);
#1077 = AXIS2_PLACEMENT_3D('',#1078,#1079,#1080);
#1078 = CARTESIAN_POINT('',(-1.95399252334E-14,-410.,16.1));
#1079 = DIRECTION('',(0.,7.8E-16,1.));
#1080 = DIRECTION('',(6.73E-15,-1.,7.8E-16));
#1081 = PLANE('',#1082);
#1082 = AXIS2_PLACEMENT_3D('',#1083,#1084,#1085);
#1083 = CARTESIAN_POINT('',(-7.4,-450.,16.1));
#1084 = DIRECTION('',(-6.7E-16,-1.1E-16,1.));
#1085 = DIRECTION('',(-5.6E-16,1.,1.1E-16));
#1086 = ADVANCED_FACE('',(#1087),#1097,.F.);
#1087 = FACE_BOUND('',#1088,.F.);
#1088 = EDGE_LOOP('',(#1089,#1095,#1096));
#1089 = ORIENTED_EDGE('',*,*,#1090,.F.);
#1090 = EDGE_CURVE('',#702,#648,#1091,.T.);
#1091 = LINE('',#1092,#1093);
#1092 = CARTESIAN_POINT('',(-6.4,-404.25,16.85));
#1093 = VECTOR('',#1094,1.);
#1094 = DIRECTION('',(-7.E-16,-0.707106781187,-0.707106781187));
#1095 = ORIENTED_EDGE('',*,*,#701,.T.);
#1096 = ORIENTED_EDGE('',*,*,#662,.F.);
#1097 = PLANE('',#1098);
#1098 = AXIS2_PLACEMENT_3D('',#1099,#1100,#1101);
#1099 = CARTESIAN_POINT('',(-6.4,-404.,17.1));
#1100 = DIRECTION('',(0.57735026919,-0.57735026919,0.57735026919));
#1101 = DIRECTION('',(-0.707106781187,3.608224830032E-16,0.707106781187)
  );
#1102 = ADVANCED_FACE('',(#1103),#1119,.F.);
#1103 = FACE_BOUND('',#1104,.F.);
#1104 = EDGE_LOOP('',(#1105,#1111,#1112,#1118));
#1105 = ORIENTED_EDGE('',*,*,#1106,.T.);
#1106 = EDGE_CURVE('',#702,#1032,#1107,.T.);
#1107 = LINE('',#1108,#1109);
#1108 = CARTESIAN_POINT('',(-7.4,-404.,17.1));
#1109 = VECTOR('',#1110,1.);
#1110 = DIRECTION('',(1.,-5.5E-16,0.));
#1111 = ORIENTED_EDGE('',*,*,#1048,.T.);
#1112 = ORIENTED_EDGE('',*,*,#1113,.F.);
#1113 = EDGE_CURVE('',#711,#1041,#1114,.T.);
#1114 = LINE('',#1115,#1116);
#1115 = CARTESIAN_POINT('',(-7.4,-404.,18.9));
#1116 = VECTOR('',#1117,1.);
#1117 = DIRECTION('',(1.,-5.5E-16,0.));
#1118 = ORIENTED_EDGE('',*,*,#718,.F.);
#1119 = PLANE('',#1120);
#1120 = AXIS2_PLACEMENT_3D('',#1121,#1122,#1123);
#1121 = CARTESIAN_POINT('',(-7.4,-404.,16.1));
#1122 = DIRECTION('',(3.4E-16,-1.,5.6E-16));
#1123 = DIRECTION('',(-8.9E-16,5.6E-16,1.));
#1124 = ADVANCED_FACE('',(#1125),#1131,.T.);
#1125 = FACE_BOUND('',#1126,.F.);
#1126 = EDGE_LOOP('',(#1127,#1128,#1129,#1130));
#1127 = ORIENTED_EDGE('',*,*,#710,.F.);
#1128 = ORIENTED_EDGE('',*,*,#1113,.T.);
#1129 = ORIENTED_EDGE('',*,*,#1040,.T.);
#1130 = ORIENTED_EDGE('',*,*,#761,.F.);
#1131 = PLANE('',#1132);
#1132 = AXIS2_PLACEMENT_3D('',#1133,#1134,#1135);
#1133 = CARTESIAN_POINT('',(-7.4,-404.5,19.4));
#1134 = DIRECTION('',(-5.5E-16,0.707106781187,0.707106781187));
#1135 = DIRECTION('',(-1.,-1.139087296526E-16,-6.639087296526E-16));
#1136 = ADVANCED_FACE('',(#1137),#1148,.F.);
#1137 = FACE_BOUND('',#1138,.T.);
#1138 = EDGE_LOOP('',(#1139,#1140,#1146,#1147));
#1139 = ORIENTED_EDGE('',*,*,#821,.F.);
#1140 = ORIENTED_EDGE('',*,*,#1141,.T.);
#1141 = EDGE_CURVE('',#822,#744,#1142,.T.);
#1142 = LINE('',#1143,#1144);
#1143 = CARTESIAN_POINT('',(1.7,-440.,27.25));
#1144 = VECTOR('',#1145,1.);
#1145 = DIRECTION('',(-3.4E-16,1.,-5.6E-16));
#1146 = ORIENTED_EDGE('',*,*,#743,.T.);
#1147 = ORIENTED_EDGE('',*,*,#1141,.F.);
#1148 = CYLINDRICAL_SURFACE('',#1149,1.7);
#1149 = AXIS2_PLACEMENT_3D('',#1150,#1151,#1152);
#1150 = CARTESIAN_POINT('',(3.552713678801E-15,-440.,27.25));
#1151 = DIRECTION('',(-1.1E-16,-1.,1.1E-16));
#1152 = DIRECTION('',(1.,-1.1E-16,0.));
#1153 = ADVANCED_FACE('',(#1154),#1173,.F.);
#1154 = FACE_BOUND('',#1155,.F.);
#1155 = EDGE_LOOP('',(#1156,#1164,#1165,#1166));
#1156 = ORIENTED_EDGE('',*,*,#1157,.F.);
#1157 = EDGE_CURVE('',#772,#1158,#1160,.T.);
#1158 = VERTEX_POINT('',#1159);
#1159 = CARTESIAN_POINT('',(-1.50990331349E-14,-412.5,17.1));
#1160 = LINE('',#1161,#1162);
#1161 = CARTESIAN_POINT('',(-1.50990331349E-14,-412.5,38.4));
#1162 = VECTOR('',#1163,1.);
#1163 = DIRECTION('',(8.9E-16,3.3E-16,-1.));
#1164 = ORIENTED_EDGE('',*,*,#771,.F.);
#1165 = ORIENTED_EDGE('',*,*,#1157,.T.);
#1166 = ORIENTED_EDGE('',*,*,#1167,.T.);
#1167 = EDGE_CURVE('',#1158,#1158,#1168,.T.);
#1168 = CIRCLE('',#1169,2.5);
#1169 = AXIS2_PLACEMENT_3D('',#1170,#1171,#1172);
#1170 = CARTESIAN_POINT('',(-1.95399252334E-14,-410.,17.1));
#1171 = DIRECTION('',(0.,7.8E-16,1.));
#1172 = DIRECTION('',(6.73E-15,-1.,7.8E-16));
#1173 = CYLINDRICAL_SURFACE('',#1174,2.5);
#1174 = AXIS2_PLACEMENT_3D('',#1175,#1176,#1177);
#1175 = CARTESIAN_POINT('',(-1.68753899743E-14,-410.,38.4));
#1176 = DIRECTION('',(-6.7E-16,-1.1E-16,1.));
#1177 = DIRECTION('',(7.8E-16,-1.,-1.1E-16));
#1178 = ADVANCED_FACE('',(#1179),#1190,.F.);
#1179 = FACE_BOUND('',#1180,.T.);
#1180 = EDGE_LOOP('',(#1181,#1187,#1188,#1189));
#1181 = ORIENTED_EDGE('',*,*,#1182,.F.);
#1182 = EDGE_CURVE('',#954,#862,#1183,.T.);
#1183 = LINE('',#1184,#1185);
#1184 = CARTESIAN_POINT('',(1.7,-446.,27.25));
#1185 = VECTOR('',#1186,1.);
#1186 = DIRECTION('',(2.2E-16,1.,-1.1E-16));
#1187 = ORIENTED_EDGE('',*,*,#963,.T.);
#1188 = ORIENTED_EDGE('',*,*,#1182,.T.);
#1189 = ORIENTED_EDGE('',*,*,#861,.F.);
#1190 = CYLINDRICAL_SURFACE('',#1191,1.7);
#1191 = AXIS2_PLACEMENT_3D('',#1192,#1193,#1194);
#1192 = CARTESIAN_POINT('',(-9.769962616701E-15,-446.,27.25));
#1193 = DIRECTION('',(0.,-1.,6.7E-16));
#1194 = DIRECTION('',(1.,1.474E-31,2.2E-16));
#1195 = ADVANCED_FACE('',(#1196),#1206,.T.);
#1196 = FACE_BOUND('',#1197,.T.);
#1197 = EDGE_LOOP('',(#1198,#1204,#1205));
#1198 = ORIENTED_EDGE('',*,*,#1199,.F.);
#1199 = EDGE_CURVE('',#1032,#1008,#1200,.T.);
#1200 = LINE('',#1201,#1202);
#1201 = CARTESIAN_POINT('',(6.4,-404.25,16.85));
#1202 = VECTOR('',#1203,1.);
#1203 = DIRECTION('',(7.E-17,-0.707106781187,-0.707106781187));
#1204 = ORIENTED_EDGE('',*,*,#1031,.T.);
#1205 = ORIENTED_EDGE('',*,*,#1017,.F.);
#1206 = PLANE('',#1207);
#1207 = AXIS2_PLACEMENT_3D('',#1208,#1209,#1210);
#1208 = CARTESIAN_POINT('',(6.4,-404.,17.1));
#1209 = DIRECTION('',(0.57735026919,0.57735026919,-0.57735026919));
#1210 = DIRECTION('',(0.707106781187,4.080069615497E-15,0.707106781187)
  );
#1211 = ADVANCED_FACE('',(#1212),#1218,.T.);
#1212 = FACE_BOUND('',#1213,.F.);
#1213 = EDGE_LOOP('',(#1214,#1215,#1216,#1217));
#1214 = ORIENTED_EDGE('',*,*,#1090,.T.);
#1215 = ORIENTED_EDGE('',*,*,#1065,.T.);
#1216 = ORIENTED_EDGE('',*,*,#1199,.F.);
#1217 = ORIENTED_EDGE('',*,*,#1106,.F.);
#1218 = PLANE('',#1219);
#1219 = AXIS2_PLACEMENT_3D('',#1220,#1221,#1222);
#1220 = CARTESIAN_POINT('',(-7.4,-404.5,16.6));
#1221 = DIRECTION('',(4.E-16,0.707106781187,-0.707106781187));
#1222 = DIRECTION('',(-1.,5.578427124746E-16,-7.842712474619E-18));
#1223 = ADVANCED_FACE('',(#1224),#1235,.F.);
#1224 = FACE_BOUND('',#1225,.F.);
#1225 = EDGE_LOOP('',(#1226,#1232,#1233,#1234));
#1226 = ORIENTED_EDGE('',*,*,#1227,.F.);
#1227 = EDGE_CURVE('',#1074,#1158,#1228,.T.);
#1228 = LINE('',#1229,#1230);
#1229 = CARTESIAN_POINT('',(-8.881784197001E-15,-412.5,17.1));
#1230 = VECTOR('',#1231,1.);
#1231 = DIRECTION('',(-3.31E-15,0.707106781187,0.707106781187));
#1232 = ORIENTED_EDGE('',*,*,#1073,.T.);
#1233 = ORIENTED_EDGE('',*,*,#1227,.T.);
#1234 = ORIENTED_EDGE('',*,*,#1167,.F.);
#1235 = CONICAL_SURFACE('',#1236,2.5,0.785398163397);
#1236 = AXIS2_PLACEMENT_3D('',#1237,#1238,#1239);
#1237 = CARTESIAN_POINT('',(-1.95399252334E-14,-410.,17.1));
#1238 = DIRECTION('',(4.4E-16,-3.3E-16,-1.));
#1239 = DIRECTION('',(6.73E-15,-1.,3.3E-16));
#1240 = ( GEOMETRIC_REPRESENTATION_CONTEXT(3) 
GLOBAL_UNCERTAINTY_ASSIGNED_CONTEXT((#1244)) 
GLOBAL_UNIT_ASSIGNED_CONTEXT((#1241,#1242,#1243)) REPRESENTATION_CONTEXT
('Context #1','3D Context with UNIT and UNCERTAINTY') );
#1241 = ( LENGTH_UNIT() NAMED_UNIT(*) SI_UNIT(.MILLI.,.METRE.) );
#1242 = ( NAMED_UNIT(*) PLANE_ANGLE_UNIT() SI_UNIT($,.RADIAN.) );
#1243 = ( NAMED_UNIT(*) SI_UNIT($,.STERADIAN.) SOLID_ANGLE_UNIT() );
#1244 = UNCERTAINTY_MEASURE_WITH_UNIT(LENGTH_MEASURE(5.E-05),#1241,
  'distance_accuracy_value','confusion accuracy');
#1245 = PRODUCT_RELATED_PRODUCT_CATEGORY('part',$,(#7));
#1246 = MECHANICAL_DESIGN_GEOMETRIC_PRESENTATION_REPRESENTATION('',(
    #1247),#1240);
#1247 = STYLED_ITEM('color',(#1248),#15);
#1248 = PRESENTATION_STYLE_ASSIGNMENT((#1249,#1255));
#1249 = SURFACE_STYLE_USAGE(.BOTH.,#1250);
#1250 = SURFACE_SIDE_STYLE('',(#1251));
#1251 = SURFACE_STYLE_FILL_AREA(#1252);
#1252 = FILL_AREA_STYLE('',(#1253));
#1253 = FILL_AREA_STYLE_COLOUR('',#1254);
#1254 = COLOUR_RGB('',0.447058818107,0.474509808674,0.501960817233);
#1255 = CURVE_STYLE('',#1256,POSITIVE_LENGTH_MEASURE(0.1),#1257);
#1256 = DRAUGHTING_PRE_DEFINED_CURVE_FONT('continuous');
#1257 = COLOUR_RGB('',9.803921802644E-02,9.803921802644E-02,
  9.803921802644E-02);
ENDSEC;
END-ISO-10303-21;
