ISO-10303-21;
HEADER;
FILE_DESCRIPTION(('FreeCAD Model'),'2;1');
FILE_NAME('Open CASCADE Shape Model','2025-07-22T09:40:55',(''),(''),
  'Open CASCADE STEP processor 7.8','FreeCAD','Unknown');
FILE_SCHEMA(('AUTOMOTIVE_DESIGN { 1 0 10303 214 1 1 1 1 }'));
ENDSEC;
DATA;
#1 = APPLICATION_PROTOCOL_DEFINITION('international standard',
  'automotive_design',2000,#2);
#2 = APPLICATION_CONTEXT(
  'core data for automotive mechanical design processes');
#3 = SHAPE_DEFINITION_REPRESENTATION(#4,#10);
#4 = PRODUCT_DEFINITION_SHAPE('','',#5);
#5 = PRODUCT_DEFINITION('design','',#6,#9);
#6 = PRODUCT_DEFINITION_FORMATION('','',#7);
#7 = PRODUCT('Belt Tensioning2','Belt Tensioning2','',(#8));
#8 = PRODUCT_CONTEXT('',#2,'mechanical');
#9 = PRODUCT_DEFINITION_CONTEXT('part definition',#2,'design');
#10 = ADVANCED_BREP_SHAPE_REPRESENTATION('',(#11,#15),#1179);
#11 = AXIS2_PLACEMENT_3D('',#12,#13,#14);
#12 = CARTESIAN_POINT('',(0.,0.,0.));
#13 = DIRECTION('',(0.,0.,1.));
#14 = DIRECTION('',(1.,0.,-0.));
#15 = MANIFOLD_SOLID_BREP('',#16);
#16 = CLOSED_SHELL('',(#17,#68,#99,#130,#161,#192,#217,#233,#249,#280,
    #377,#393,#490,#506,#548,#573,#590,#607,#624,#657,#688,#716,#747,
    #762,#779,#801,#829,#846,#869,#900,#931,#948,#975,#992,#1009,#1034,
    #1050,#1067,#1084,#1095,#1123,#1139,#1150,#1167));
#17 = ADVANCED_FACE('',(#18,#52),#63,.F.);
#18 = FACE_BOUND('',#19,.F.);
#19 = EDGE_LOOP('',(#20,#30,#38,#46));
#20 = ORIENTED_EDGE('',*,*,#21,.T.);
#21 = EDGE_CURVE('',#22,#24,#26,.T.);
#22 = VERTEX_POINT('',#23);
#23 = CARTESIAN_POINT('',(-6.4,-405.,38.4));
#24 = VERTEX_POINT('',#25);
#25 = CARTESIAN_POINT('',(6.4,-405.,38.4));
#26 = LINE('',#27,#28);
#27 = CARTESIAN_POINT('',(-7.4,-405.,38.4));
#28 = VECTOR('',#29,1.);
#29 = DIRECTION('',(1.,-5.5E-16,0.));
#30 = ORIENTED_EDGE('',*,*,#31,.T.);
#31 = EDGE_CURVE('',#24,#32,#34,.T.);
#32 = VERTEX_POINT('',#33);
#33 = CARTESIAN_POINT('',(6.4,-449.,38.4));
#34 = LINE('',#35,#36);
#35 = CARTESIAN_POINT('',(6.4,-404.,38.4));
#36 = VECTOR('',#37,1.);
#37 = DIRECTION('',(3.3E-16,-1.,5.6E-16));
#38 = ORIENTED_EDGE('',*,*,#39,.F.);
#39 = EDGE_CURVE('',#40,#32,#42,.T.);
#40 = VERTEX_POINT('',#41);
#41 = CARTESIAN_POINT('',(-6.4,-449.,38.4));
#42 = LINE('',#43,#44);
#43 = CARTESIAN_POINT('',(-7.4,-449.,38.4));
#44 = VECTOR('',#45,1.);
#45 = DIRECTION('',(1.,-5.5E-16,0.));
#46 = ORIENTED_EDGE('',*,*,#47,.F.);
#47 = EDGE_CURVE('',#22,#40,#48,.T.);
#48 = LINE('',#49,#50);
#49 = CARTESIAN_POINT('',(-6.4,-404.,38.4));
#50 = VECTOR('',#51,1.);
#51 = DIRECTION('',(3.3E-16,-1.,5.6E-16));
#52 = FACE_BOUND('',#53,.F.);
#53 = EDGE_LOOP('',(#54));
#54 = ORIENTED_EDGE('',*,*,#55,.T.);
#55 = EDGE_CURVE('',#56,#56,#58,.T.);
#56 = VERTEX_POINT('',#57);
#57 = CARTESIAN_POINT('',(-2.39808173319E-14,-413.5,38.4));
#58 = CIRCLE('',#59,3.5);
#59 = AXIS2_PLACEMENT_3D('',#60,#61,#62);
#60 = CARTESIAN_POINT('',(-1.865E-14,-410.,38.4));
#61 = DIRECTION('',(0.,7.8E-16,1.));
#62 = DIRECTION('',(6.9E-16,-1.,7.8E-16));
#63 = PLANE('',#64);
#64 = AXIS2_PLACEMENT_3D('',#65,#66,#67);
#65 = CARTESIAN_POINT('',(-7.4,-404.,38.4));
#66 = DIRECTION('',(6.7E-16,1.1E-16,-1.));
#67 = DIRECTION('',(5.6E-16,-1.,-1.1E-16));
#68 = ADVANCED_FACE('',(#69),#94,.T.);
#69 = FACE_BOUND('',#70,.T.);
#70 = EDGE_LOOP('',(#71,#72,#80,#88));
#71 = ORIENTED_EDGE('',*,*,#21,.T.);
#72 = ORIENTED_EDGE('',*,*,#73,.T.);
#73 = EDGE_CURVE('',#24,#74,#76,.T.);
#74 = VERTEX_POINT('',#75);
#75 = CARTESIAN_POINT('',(6.4,-404.,37.4));
#76 = LINE('',#77,#78);
#77 = CARTESIAN_POINT('',(6.4,-404.5,37.9));
#78 = VECTOR('',#79,1.);
#79 = DIRECTION('',(-2.E-17,0.707106781187,-0.707106781187));
#80 = ORIENTED_EDGE('',*,*,#81,.F.);
#81 = EDGE_CURVE('',#82,#74,#84,.T.);
#82 = VERTEX_POINT('',#83);
#83 = CARTESIAN_POINT('',(-6.4,-404.,37.4));
#84 = LINE('',#85,#86);
#85 = CARTESIAN_POINT('',(-7.4,-404.,37.4));
#86 = VECTOR('',#87,1.);
#87 = DIRECTION('',(1.,-5.5E-16,0.));
#88 = ORIENTED_EDGE('',*,*,#89,.F.);
#89 = EDGE_CURVE('',#22,#82,#90,.T.);
#90 = LINE('',#91,#92);
#91 = CARTESIAN_POINT('',(-6.4,-404.5,37.9));
#92 = VECTOR('',#93,1.);
#93 = DIRECTION('',(7.5E-16,0.707106781187,-0.707106781187));
#94 = PLANE('',#95);
#95 = AXIS2_PLACEMENT_3D('',#96,#97,#98);
#96 = CARTESIAN_POINT('',(-7.4,-404.5,37.9));
#97 = DIRECTION('',(-6.5E-16,0.707106781187,0.707106781187));
#98 = DIRECTION('',(1.,1.846194077713E-16,7.346194077713E-16));
#99 = ADVANCED_FACE('',(#100),#125,.T.);
#100 = FACE_BOUND('',#101,.F.);
#101 = EDGE_LOOP('',(#102,#110,#111,#119));
#102 = ORIENTED_EDGE('',*,*,#103,.T.);
#103 = EDGE_CURVE('',#104,#22,#106,.T.);
#104 = VERTEX_POINT('',#105);
#105 = CARTESIAN_POINT('',(-7.4,-405.,37.4));
#106 = LINE('',#107,#108);
#107 = CARTESIAN_POINT('',(-7.15,-405.,37.65));
#108 = VECTOR('',#109,1.);
#109 = DIRECTION('',(0.707106781187,-5.4E-16,0.707106781187));
#110 = ORIENTED_EDGE('',*,*,#47,.T.);
#111 = ORIENTED_EDGE('',*,*,#112,.T.);
#112 = EDGE_CURVE('',#40,#113,#115,.T.);
#113 = VERTEX_POINT('',#114);
#114 = CARTESIAN_POINT('',(-7.4,-449.,37.4));
#115 = LINE('',#116,#117);
#116 = CARTESIAN_POINT('',(-6.9,-449.,37.9));
#117 = VECTOR('',#118,1.);
#118 = DIRECTION('',(-0.707106781187,-1.E-15,-0.707106781187));
#119 = ORIENTED_EDGE('',*,*,#120,.F.);
#120 = EDGE_CURVE('',#104,#113,#121,.T.);
#121 = LINE('',#122,#123);
#122 = CARTESIAN_POINT('',(-7.4,-404.,37.4));
#123 = VECTOR('',#124,1.);
#124 = DIRECTION('',(3.3E-16,-1.,5.6E-16));
#125 = PLANE('',#126);
#126 = AXIS2_PLACEMENT_3D('',#127,#128,#129);
#127 = CARTESIAN_POINT('',(-6.9,-404.,37.9));
#128 = DIRECTION('',(-0.707106781187,4.1E-16,0.707106781187));
#129 = DIRECTION('',(-1.550862197135E-16,1.,-7.349137802865E-16));
#130 = ADVANCED_FACE('',(#131),#156,.F.);
#131 = FACE_BOUND('',#132,.T.);
#132 = EDGE_LOOP('',(#133,#141,#142,#150));
#133 = ORIENTED_EDGE('',*,*,#134,.T.);
#134 = EDGE_CURVE('',#135,#24,#137,.T.);
#135 = VERTEX_POINT('',#136);
#136 = CARTESIAN_POINT('',(7.4,-405.,37.4));
#137 = LINE('',#138,#139);
#138 = CARTESIAN_POINT('',(7.15,-405.,37.65));
#139 = VECTOR('',#140,1.);
#140 = DIRECTION('',(-0.707106781187,4.8E-16,0.707106781187));
#141 = ORIENTED_EDGE('',*,*,#31,.T.);
#142 = ORIENTED_EDGE('',*,*,#143,.T.);
#143 = EDGE_CURVE('',#32,#144,#146,.T.);
#144 = VERTEX_POINT('',#145);
#145 = CARTESIAN_POINT('',(7.4,-449.,37.4));
#146 = LINE('',#147,#148);
#147 = CARTESIAN_POINT('',(6.9,-449.,37.9));
#148 = VECTOR('',#149,1.);
#149 = DIRECTION('',(0.707106781187,1.135E-14,-0.707106781187));
#150 = ORIENTED_EDGE('',*,*,#151,.F.);
#151 = EDGE_CURVE('',#135,#144,#152,.T.);
#152 = LINE('',#153,#154);
#153 = CARTESIAN_POINT('',(7.4,-404.,37.4));
#154 = VECTOR('',#155,1.);
#155 = DIRECTION('',(3.3E-16,-1.,5.6E-16));
#156 = PLANE('',#157);
#157 = AXIS2_PLACEMENT_3D('',#158,#159,#160);
#158 = CARTESIAN_POINT('',(6.9,-404.,37.9));
#159 = DIRECTION('',(-0.707106781187,3.E-17,-0.707106781187));
#160 = DIRECTION('',(1.312132034356E-16,1.,-8.87867965644E-17));
#161 = ADVANCED_FACE('',(#162),#187,.T.);
#162 = FACE_BOUND('',#163,.F.);
#163 = EDGE_LOOP('',(#164,#172,#173,#181));
#164 = ORIENTED_EDGE('',*,*,#165,.T.);
#165 = EDGE_CURVE('',#166,#40,#168,.T.);
#166 = VERTEX_POINT('',#167);
#167 = CARTESIAN_POINT('',(-6.4,-450.,37.4));
#168 = LINE('',#169,#170);
#169 = CARTESIAN_POINT('',(-6.4,-449.75,37.65));
#170 = VECTOR('',#171,1.);
#171 = DIRECTION('',(-4.68E-15,0.707106781187,0.707106781187));
#172 = ORIENTED_EDGE('',*,*,#39,.T.);
#173 = ORIENTED_EDGE('',*,*,#174,.F.);
#174 = EDGE_CURVE('',#175,#32,#177,.T.);
#175 = VERTEX_POINT('',#176);
#176 = CARTESIAN_POINT('',(6.4,-450.,37.4));
#177 = LINE('',#178,#179);
#178 = CARTESIAN_POINT('',(6.4,-449.75,37.65));
#179 = VECTOR('',#180,1.);
#180 = DIRECTION('',(1.455E-14,0.707106781187,0.707106781187));
#181 = ORIENTED_EDGE('',*,*,#182,.F.);
#182 = EDGE_CURVE('',#166,#175,#183,.T.);
#183 = LINE('',#184,#185);
#184 = CARTESIAN_POINT('',(-7.4,-450.,37.4));
#185 = VECTOR('',#186,1.);
#186 = DIRECTION('',(1.,-5.5E-16,0.));
#187 = PLANE('',#188);
#188 = AXIS2_PLACEMENT_3D('',#189,#190,#191);
#189 = CARTESIAN_POINT('',(-7.4,-449.5,37.9));
#190 = DIRECTION('',(-3.4E-16,-0.707106781187,0.707106781187));
#191 = DIRECTION('',(-1.,5.154163056034E-16,3.458369439657E-17));
#192 = ADVANCED_FACE('',(#193),#212,.F.);
#193 = FACE_BOUND('',#194,.T.);
#194 = EDGE_LOOP('',(#195,#203,#204,#205));
#195 = ORIENTED_EDGE('',*,*,#196,.F.);
#196 = EDGE_CURVE('',#56,#197,#199,.T.);
#197 = VERTEX_POINT('',#198);
#198 = CARTESIAN_POINT('',(-2.39808173319E-14,-412.5,37.4));
#199 = LINE('',#200,#201);
#200 = CARTESIAN_POINT('',(-1.776E-14,-412.5,37.4));
#201 = VECTOR('',#202,1.);
#202 = DIRECTION('',(3.3E-16,0.707106781187,-0.707106781187));
#203 = ORIENTED_EDGE('',*,*,#55,.T.);
#204 = ORIENTED_EDGE('',*,*,#196,.T.);
#205 = ORIENTED_EDGE('',*,*,#206,.F.);
#206 = EDGE_CURVE('',#197,#197,#207,.T.);
#207 = CIRCLE('',#208,2.5);
#208 = AXIS2_PLACEMENT_3D('',#209,#210,#211);
#209 = CARTESIAN_POINT('',(-1.776E-14,-410.,37.4));
#210 = DIRECTION('',(0.,7.8E-16,1.));
#211 = DIRECTION('',(6.9E-16,-1.,7.8E-16));
#212 = CONICAL_SURFACE('',#213,2.5,0.785398163397);
#213 = AXIS2_PLACEMENT_3D('',#214,#215,#216);
#214 = CARTESIAN_POINT('',(-1.776E-14,-410.,37.4));
#215 = DIRECTION('',(-4.4E-16,3.3E-16,1.));
#216 = DIRECTION('',(6.9E-16,-1.,3.3E-16));
#217 = ADVANCED_FACE('',(#218),#228,.F.);
#218 = FACE_BOUND('',#219,.F.);
#219 = EDGE_LOOP('',(#220,#221,#227));
#220 = ORIENTED_EDGE('',*,*,#103,.F.);
#221 = ORIENTED_EDGE('',*,*,#222,.T.);
#222 = EDGE_CURVE('',#104,#82,#223,.T.);
#223 = LINE('',#224,#225);
#224 = CARTESIAN_POINT('',(-7.15,-404.75,37.4));
#225 = VECTOR('',#226,1.);
#226 = DIRECTION('',(0.707106781187,0.707106781187,-6.2E-16));
#227 = ORIENTED_EDGE('',*,*,#89,.F.);
#228 = PLANE('',#229);
#229 = AXIS2_PLACEMENT_3D('',#230,#231,#232);
#230 = CARTESIAN_POINT('',(-7.4,-405.,37.4));
#231 = DIRECTION('',(0.57735026919,-0.57735026919,-0.57735026919));
#232 = DIRECTION('',(5.273559366969E-16,0.707106781187,-0.707106781187)
  );
#233 = ADVANCED_FACE('',(#234),#244,.T.);
#234 = FACE_BOUND('',#235,.T.);
#235 = EDGE_LOOP('',(#236,#237,#243));
#236 = ORIENTED_EDGE('',*,*,#134,.F.);
#237 = ORIENTED_EDGE('',*,*,#238,.T.);
#238 = EDGE_CURVE('',#135,#74,#239,.T.);
#239 = LINE('',#240,#241);
#240 = CARTESIAN_POINT('',(7.15,-404.75,37.4));
#241 = VECTOR('',#242,1.);
#242 = DIRECTION('',(-0.707106781187,0.707106781187,-4.3E-16));
#243 = ORIENTED_EDGE('',*,*,#73,.F.);
#244 = PLANE('',#245);
#245 = AXIS2_PLACEMENT_3D('',#246,#247,#248);
#246 = CARTESIAN_POINT('',(7.4,-405.,37.4));
#247 = DIRECTION('',(0.57735026919,0.57735026919,0.57735026919));
#248 = DIRECTION('',(1.110223024625E-16,0.707106781187,-0.707106781187)
  );
#249 = ADVANCED_FACE('',(#250),#275,.F.);
#250 = FACE_BOUND('',#251,.F.);
#251 = EDGE_LOOP('',(#252,#253,#261,#269));
#252 = ORIENTED_EDGE('',*,*,#81,.F.);
#253 = ORIENTED_EDGE('',*,*,#254,.F.);
#254 = EDGE_CURVE('',#255,#82,#257,.T.);
#255 = VERTEX_POINT('',#256);
#256 = CARTESIAN_POINT('',(-6.4,-404.,35.6));
#257 = LINE('',#258,#259);
#258 = CARTESIAN_POINT('',(-6.4,-404.,34.6));
#259 = VECTOR('',#260,1.);
#260 = DIRECTION('',(-6.7E-16,-1.1E-16,1.));
#261 = ORIENTED_EDGE('',*,*,#262,.T.);
#262 = EDGE_CURVE('',#255,#263,#265,.T.);
#263 = VERTEX_POINT('',#264);
#264 = CARTESIAN_POINT('',(6.4,-404.,35.6));
#265 = LINE('',#266,#267);
#266 = CARTESIAN_POINT('',(-7.4,-404.,35.6));
#267 = VECTOR('',#268,1.);
#268 = DIRECTION('',(1.,-5.5E-16,0.));
#269 = ORIENTED_EDGE('',*,*,#270,.T.);
#270 = EDGE_CURVE('',#263,#74,#271,.T.);
#271 = LINE('',#272,#273);
#272 = CARTESIAN_POINT('',(6.4,-404.,34.6));
#273 = VECTOR('',#274,1.);
#274 = DIRECTION('',(-6.7E-16,-1.1E-16,1.));
#275 = PLANE('',#276);
#276 = AXIS2_PLACEMENT_3D('',#277,#278,#279);
#277 = CARTESIAN_POINT('',(-7.4,-404.,34.6));
#278 = DIRECTION('',(3.4E-16,-1.,5.6E-16));
#279 = DIRECTION('',(-8.9E-16,5.6E-16,1.));
#280 = ADVANCED_FACE('',(#281,#338),#372,.F.);
#281 = FACE_BOUND('',#282,.F.);
#282 = EDGE_LOOP('',(#283,#293,#301,#309,#315,#316,#324,#332));
#283 = ORIENTED_EDGE('',*,*,#284,.T.);
#284 = EDGE_CURVE('',#285,#287,#289,.T.);
#285 = VERTEX_POINT('',#286);
#286 = CARTESIAN_POINT('',(-7.4,-405.,19.9));
#287 = VERTEX_POINT('',#288);
#288 = CARTESIAN_POINT('',(-7.4,-440.,19.9));
#289 = LINE('',#290,#291);
#290 = CARTESIAN_POINT('',(-7.4,-404.,19.9));
#291 = VECTOR('',#292,1.);
#292 = DIRECTION('',(5.6E-16,-1.,5.6E-16));
#293 = ORIENTED_EDGE('',*,*,#294,.T.);
#294 = EDGE_CURVE('',#287,#295,#297,.T.);
#295 = VERTEX_POINT('',#296);
#296 = CARTESIAN_POINT('',(-7.4,-440.,34.6));
#297 = LINE('',#298,#299);
#298 = CARTESIAN_POINT('',(-7.4,-440.,19.9));
#299 = VECTOR('',#300,1.);
#300 = DIRECTION('',(-6.7E-16,-3.3E-16,1.));
#301 = ORIENTED_EDGE('',*,*,#302,.T.);
#302 = EDGE_CURVE('',#295,#303,#305,.T.);
#303 = VERTEX_POINT('',#304);
#304 = CARTESIAN_POINT('',(-7.4,-405.,34.6));
#305 = LINE('',#306,#307);
#306 = CARTESIAN_POINT('',(-7.4,-440.,34.6));
#307 = VECTOR('',#308,1.);
#308 = DIRECTION('',(-5.6E-16,1.,-5.6E-16));
#309 = ORIENTED_EDGE('',*,*,#310,.T.);
#310 = EDGE_CURVE('',#303,#104,#311,.T.);
#311 = LINE('',#312,#313);
#312 = CARTESIAN_POINT('',(-7.4,-405.,34.6));
#313 = VECTOR('',#314,1.);
#314 = DIRECTION('',(-6.7E-16,-1.1E-16,1.));
#315 = ORIENTED_EDGE('',*,*,#120,.T.);
#316 = ORIENTED_EDGE('',*,*,#317,.T.);
#317 = EDGE_CURVE('',#113,#318,#320,.T.);
#318 = VERTEX_POINT('',#319);
#319 = CARTESIAN_POINT('',(-7.4,-449.,17.1));
#320 = LINE('',#321,#322);
#321 = CARTESIAN_POINT('',(-7.4,-449.,38.4));
#322 = VECTOR('',#323,1.);
#323 = DIRECTION('',(6.7E-16,1.1E-16,-1.));
#324 = ORIENTED_EDGE('',*,*,#325,.T.);
#325 = EDGE_CURVE('',#318,#326,#328,.T.);
#326 = VERTEX_POINT('',#327);
#327 = CARTESIAN_POINT('',(-7.4,-405.,17.1));
#328 = LINE('',#329,#330);
#329 = CARTESIAN_POINT('',(-7.4,-450.,17.1));
#330 = VECTOR('',#331,1.);
#331 = DIRECTION('',(-3.3E-16,1.,-5.6E-16));
#332 = ORIENTED_EDGE('',*,*,#333,.T.);
#333 = EDGE_CURVE('',#326,#285,#334,.T.);
#334 = LINE('',#335,#336);
#335 = CARTESIAN_POINT('',(-7.4,-405.,16.1));
#336 = VECTOR('',#337,1.);
#337 = DIRECTION('',(-6.7E-16,-1.1E-16,1.));
#338 = FACE_BOUND('',#339,.F.);
#339 = EDGE_LOOP('',(#340,#350,#358,#366));
#340 = ORIENTED_EDGE('',*,*,#341,.F.);
#341 = EDGE_CURVE('',#342,#344,#346,.T.);
#342 = VERTEX_POINT('',#343);
#343 = CARTESIAN_POINT('',(-7.4,-446.,24.25));
#344 = VERTEX_POINT('',#345);
#345 = CARTESIAN_POINT('',(-7.4,-443.,24.25));
#346 = LINE('',#347,#348);
#347 = CARTESIAN_POINT('',(-7.4,-436.905560882,24.25));
#348 = VECTOR('',#349,1.);
#349 = DIRECTION('',(4.4E-16,1.,-3.3E-16));
#350 = ORIENTED_EDGE('',*,*,#351,.F.);
#351 = EDGE_CURVE('',#352,#342,#354,.T.);
#352 = VERTEX_POINT('',#353);
#353 = CARTESIAN_POINT('',(-7.4,-446.,30.25));
#354 = LINE('',#355,#356);
#355 = CARTESIAN_POINT('',(-7.4,-446.,28.75));
#356 = VECTOR('',#357,1.);
#357 = DIRECTION('',(2.2E-16,-1.1E-16,-1.));
#358 = ORIENTED_EDGE('',*,*,#359,.F.);
#359 = EDGE_CURVE('',#360,#352,#362,.T.);
#360 = VERTEX_POINT('',#361);
#361 = CARTESIAN_POINT('',(-7.4,-443.,30.25));
#362 = LINE('',#363,#364);
#363 = CARTESIAN_POINT('',(-7.4,-435.405560882,30.25));
#364 = VECTOR('',#365,1.);
#365 = DIRECTION('',(-4.4E-16,-1.,3.3E-16));
#366 = ORIENTED_EDGE('',*,*,#367,.F.);
#367 = EDGE_CURVE('',#344,#360,#368,.T.);
#368 = LINE('',#369,#370);
#369 = CARTESIAN_POINT('',(-7.4,-443.,25.75));
#370 = VECTOR('',#371,1.);
#371 = DIRECTION('',(-2.2E-16,1.1E-16,1.));
#372 = PLANE('',#373);
#373 = AXIS2_PLACEMENT_3D('',#374,#375,#376);
#374 = CARTESIAN_POINT('',(-7.4,-427.8111217641,27.25));
#375 = DIRECTION('',(1.,-3.3E-16,-2.2E-16));
#376 = DIRECTION('',(2.2E-16,-3.3E-16,1.));
#377 = ADVANCED_FACE('',(#378),#388,.F.);
#378 = FACE_BOUND('',#379,.F.);
#379 = EDGE_LOOP('',(#380,#381,#387));
#380 = ORIENTED_EDGE('',*,*,#165,.F.);
#381 = ORIENTED_EDGE('',*,*,#382,.T.);
#382 = EDGE_CURVE('',#166,#113,#383,.T.);
#383 = LINE('',#384,#385);
#384 = CARTESIAN_POINT('',(-6.65,-449.75,37.4));
#385 = VECTOR('',#386,1.);
#386 = DIRECTION('',(-0.707106781187,0.707106781187,4.86E-15));
#387 = ORIENTED_EDGE('',*,*,#112,.F.);
#388 = PLANE('',#389);
#389 = AXIS2_PLACEMENT_3D('',#390,#391,#392);
#390 = CARTESIAN_POINT('',(-6.4,-450.,37.4));
#391 = DIRECTION('',(0.57735026919,0.57735026919,-0.57735026919));
#392 = DIRECTION('',(-0.707106781187,0.,-0.707106781187));
#393 = ADVANCED_FACE('',(#394,#451),#485,.T.);
#394 = FACE_BOUND('',#395,.T.);
#395 = EDGE_LOOP('',(#396,#406,#414,#422,#428,#429,#437,#445));
#396 = ORIENTED_EDGE('',*,*,#397,.T.);
#397 = EDGE_CURVE('',#398,#400,#402,.T.);
#398 = VERTEX_POINT('',#399);
#399 = CARTESIAN_POINT('',(7.4,-405.,19.9));
#400 = VERTEX_POINT('',#401);
#401 = CARTESIAN_POINT('',(7.4,-440.,19.9));
#402 = LINE('',#403,#404);
#403 = CARTESIAN_POINT('',(7.4,-404.,19.9));
#404 = VECTOR('',#405,1.);
#405 = DIRECTION('',(5.6E-16,-1.,5.6E-16));
#406 = ORIENTED_EDGE('',*,*,#407,.T.);
#407 = EDGE_CURVE('',#400,#408,#410,.T.);
#408 = VERTEX_POINT('',#409);
#409 = CARTESIAN_POINT('',(7.4,-440.,34.6));
#410 = LINE('',#411,#412);
#411 = CARTESIAN_POINT('',(7.4,-440.,19.9));
#412 = VECTOR('',#413,1.);
#413 = DIRECTION('',(-6.7E-16,-3.3E-16,1.));
#414 = ORIENTED_EDGE('',*,*,#415,.T.);
#415 = EDGE_CURVE('',#408,#416,#418,.T.);
#416 = VERTEX_POINT('',#417);
#417 = CARTESIAN_POINT('',(7.4,-405.,34.6));
#418 = LINE('',#419,#420);
#419 = CARTESIAN_POINT('',(7.4,-440.,34.6));
#420 = VECTOR('',#421,1.);
#421 = DIRECTION('',(-5.6E-16,1.,-5.6E-16));
#422 = ORIENTED_EDGE('',*,*,#423,.T.);
#423 = EDGE_CURVE('',#416,#135,#424,.T.);
#424 = LINE('',#425,#426);
#425 = CARTESIAN_POINT('',(7.4,-405.,34.6));
#426 = VECTOR('',#427,1.);
#427 = DIRECTION('',(-6.7E-16,-1.1E-16,1.));
#428 = ORIENTED_EDGE('',*,*,#151,.T.);
#429 = ORIENTED_EDGE('',*,*,#430,.T.);
#430 = EDGE_CURVE('',#144,#431,#433,.T.);
#431 = VERTEX_POINT('',#432);
#432 = CARTESIAN_POINT('',(7.4,-449.,17.1));
#433 = LINE('',#434,#435);
#434 = CARTESIAN_POINT('',(7.4,-449.,38.4));
#435 = VECTOR('',#436,1.);
#436 = DIRECTION('',(6.7E-16,1.1E-16,-1.));
#437 = ORIENTED_EDGE('',*,*,#438,.T.);
#438 = EDGE_CURVE('',#431,#439,#441,.T.);
#439 = VERTEX_POINT('',#440);
#440 = CARTESIAN_POINT('',(7.4,-405.,17.1));
#441 = LINE('',#442,#443);
#442 = CARTESIAN_POINT('',(7.4,-450.,17.1));
#443 = VECTOR('',#444,1.);
#444 = DIRECTION('',(-3.3E-16,1.,-5.6E-16));
#445 = ORIENTED_EDGE('',*,*,#446,.T.);
#446 = EDGE_CURVE('',#439,#398,#447,.T.);
#447 = LINE('',#448,#449);
#448 = CARTESIAN_POINT('',(7.4,-405.,16.1));
#449 = VECTOR('',#450,1.);
#450 = DIRECTION('',(-6.7E-16,-1.1E-16,1.));
#451 = FACE_BOUND('',#452,.T.);
#452 = EDGE_LOOP('',(#453,#463,#471,#479));
#453 = ORIENTED_EDGE('',*,*,#454,.F.);
#454 = EDGE_CURVE('',#455,#457,#459,.T.);
#455 = VERTEX_POINT('',#456);
#456 = CARTESIAN_POINT('',(7.4,-446.,24.25));
#457 = VERTEX_POINT('',#458);
#458 = CARTESIAN_POINT('',(7.4,-443.,24.25));
#459 = LINE('',#460,#461);
#460 = CARTESIAN_POINT('',(7.4,-446.,24.25));
#461 = VECTOR('',#462,1.);
#462 = DIRECTION('',(-2.2E-16,1.,-3.3E-16));
#463 = ORIENTED_EDGE('',*,*,#464,.F.);
#464 = EDGE_CURVE('',#465,#455,#467,.T.);
#465 = VERTEX_POINT('',#466);
#466 = CARTESIAN_POINT('',(7.4,-446.,30.25));
#467 = LINE('',#468,#469);
#468 = CARTESIAN_POINT('',(7.4,-446.,30.25));
#469 = VECTOR('',#470,1.);
#470 = DIRECTION('',(3.3E-16,1.1E-16,-1.));
#471 = ORIENTED_EDGE('',*,*,#472,.F.);
#472 = EDGE_CURVE('',#473,#465,#475,.T.);
#473 = VERTEX_POINT('',#474);
#474 = CARTESIAN_POINT('',(7.4,-443.,30.25));
#475 = LINE('',#476,#477);
#476 = CARTESIAN_POINT('',(7.4,-443.,30.25));
#477 = VECTOR('',#478,1.);
#478 = DIRECTION('',(2.2E-16,-1.,3.3E-16));
#479 = ORIENTED_EDGE('',*,*,#480,.F.);
#480 = EDGE_CURVE('',#457,#473,#481,.T.);
#481 = LINE('',#482,#483);
#482 = CARTESIAN_POINT('',(7.4,-443.,24.25));
#483 = VECTOR('',#484,1.);
#484 = DIRECTION('',(-3.3E-16,-1.1E-16,1.));
#485 = PLANE('',#486);
#486 = AXIS2_PLACEMENT_3D('',#487,#488,#489);
#487 = CARTESIAN_POINT('',(7.4,-427.8111217641,27.25));
#488 = DIRECTION('',(1.,-3.3E-16,-2.2E-16));
#489 = DIRECTION('',(2.2E-16,-3.3E-16,1.));
#490 = ADVANCED_FACE('',(#491),#501,.T.);
#491 = FACE_BOUND('',#492,.T.);
#492 = EDGE_LOOP('',(#493,#494,#500));
#493 = ORIENTED_EDGE('',*,*,#174,.F.);
#494 = ORIENTED_EDGE('',*,*,#495,.T.);
#495 = EDGE_CURVE('',#175,#144,#496,.T.);
#496 = LINE('',#497,#498);
#497 = CARTESIAN_POINT('',(6.65,-449.75,37.4));
#498 = VECTOR('',#499,1.);
#499 = DIRECTION('',(0.707106781187,0.707106781187,3.51E-15));
#500 = ORIENTED_EDGE('',*,*,#143,.F.);
#501 = PLANE('',#502);
#502 = AXIS2_PLACEMENT_3D('',#503,#504,#505);
#503 = CARTESIAN_POINT('',(6.4,-450.,37.4));
#504 = DIRECTION('',(0.57735026919,-0.57735026919,0.57735026919));
#505 = DIRECTION('',(0.707106781187,9.964251646011E-15,-0.707106781187)
  );
#506 = ADVANCED_FACE('',(#507,#532),#543,.F.);
#507 = FACE_BOUND('',#508,.F.);
#508 = EDGE_LOOP('',(#509,#510,#518,#526));
#509 = ORIENTED_EDGE('',*,*,#182,.T.);
#510 = ORIENTED_EDGE('',*,*,#511,.T.);
#511 = EDGE_CURVE('',#175,#512,#514,.T.);
#512 = VERTEX_POINT('',#513);
#513 = CARTESIAN_POINT('',(6.4,-450.,17.1));
#514 = LINE('',#515,#516);
#515 = CARTESIAN_POINT('',(6.4,-450.,38.4));
#516 = VECTOR('',#517,1.);
#517 = DIRECTION('',(6.7E-16,1.1E-16,-1.));
#518 = ORIENTED_EDGE('',*,*,#519,.F.);
#519 = EDGE_CURVE('',#520,#512,#522,.T.);
#520 = VERTEX_POINT('',#521);
#521 = CARTESIAN_POINT('',(-6.4,-450.,17.1));
#522 = LINE('',#523,#524);
#523 = CARTESIAN_POINT('',(-7.4,-450.,17.1));
#524 = VECTOR('',#525,1.);
#525 = DIRECTION('',(1.,-5.5E-16,0.));
#526 = ORIENTED_EDGE('',*,*,#527,.F.);
#527 = EDGE_CURVE('',#166,#520,#528,.T.);
#528 = LINE('',#529,#530);
#529 = CARTESIAN_POINT('',(-6.4,-450.,38.4));
#530 = VECTOR('',#531,1.);
#531 = DIRECTION('',(6.7E-16,1.1E-16,-1.));
#532 = FACE_BOUND('',#533,.F.);
#533 = EDGE_LOOP('',(#534));
#534 = ORIENTED_EDGE('',*,*,#535,.T.);
#535 = EDGE_CURVE('',#536,#536,#538,.T.);
#536 = VERTEX_POINT('',#537);
#537 = CARTESIAN_POINT('',(1.7,-450.,27.25));
#538 = CIRCLE('',#539,1.7);
#539 = AXIS2_PLACEMENT_3D('',#540,#541,#542);
#540 = CARTESIAN_POINT('',(2.84217094304E-14,-450.,27.25));
#541 = DIRECTION('',(-1.1E-16,-1.,1.1E-16));
#542 = DIRECTION('',(1.,-1.1E-16,0.));
#543 = PLANE('',#544);
#544 = AXIS2_PLACEMENT_3D('',#545,#546,#547);
#545 = CARTESIAN_POINT('',(-7.4,-450.,38.4));
#546 = DIRECTION('',(-3.4E-16,1.,-5.6E-16));
#547 = DIRECTION('',(8.9E-16,-5.6E-16,-1.));
#548 = ADVANCED_FACE('',(#549),#568,.F.);
#549 = FACE_BOUND('',#550,.F.);
#550 = EDGE_LOOP('',(#551,#559,#560,#561));
#551 = ORIENTED_EDGE('',*,*,#552,.F.);
#552 = EDGE_CURVE('',#197,#553,#555,.T.);
#553 = VERTEX_POINT('',#554);
#554 = CARTESIAN_POINT('',(-2.04281036531E-14,-412.5,34.6));
#555 = LINE('',#556,#557);
#556 = CARTESIAN_POINT('',(-1.51E-14,-412.5,38.4));
#557 = VECTOR('',#558,1.);
#558 = DIRECTION('',(8.9E-16,3.3E-16,-1.));
#559 = ORIENTED_EDGE('',*,*,#206,.F.);
#560 = ORIENTED_EDGE('',*,*,#552,.T.);
#561 = ORIENTED_EDGE('',*,*,#562,.T.);
#562 = EDGE_CURVE('',#553,#553,#563,.T.);
#563 = CIRCLE('',#564,2.5);
#564 = AXIS2_PLACEMENT_3D('',#565,#566,#567);
#565 = CARTESIAN_POINT('',(-1.421E-14,-410.,34.6));
#566 = DIRECTION('',(2.2E-16,7.8E-16,1.));
#567 = DIRECTION('',(7.8E-16,-1.,7.8E-16));
#568 = CYLINDRICAL_SURFACE('',#569,2.5);
#569 = AXIS2_PLACEMENT_3D('',#570,#571,#572);
#570 = CARTESIAN_POINT('',(-1.688E-14,-410.,38.4));
#571 = DIRECTION('',(-6.7E-16,-1.1E-16,1.));
#572 = DIRECTION('',(7.8E-16,-1.,-1.1E-16));
#573 = ADVANCED_FACE('',(#574),#585,.T.);
#574 = FACE_BOUND('',#575,.F.);
#575 = EDGE_LOOP('',(#576,#582,#583,#584));
#576 = ORIENTED_EDGE('',*,*,#577,.F.);
#577 = EDGE_CURVE('',#255,#303,#578,.T.);
#578 = LINE('',#579,#580);
#579 = CARTESIAN_POINT('',(-7.066666666667,-404.6666666666,
    34.933333333333));
#580 = VECTOR('',#581,1.);
#581 = DIRECTION('',(-0.57735026919,-0.57735026919,-0.57735026919));
#582 = ORIENTED_EDGE('',*,*,#254,.T.);
#583 = ORIENTED_EDGE('',*,*,#222,.F.);
#584 = ORIENTED_EDGE('',*,*,#310,.F.);
#585 = PLANE('',#586);
#586 = AXIS2_PLACEMENT_3D('',#587,#588,#589);
#587 = CARTESIAN_POINT('',(-6.9,-404.5,34.6));
#588 = DIRECTION('',(-0.707106781187,0.707106781187,-3.9E-16));
#589 = DIRECTION('',(6.607716446628E-16,1.092283553372E-16,-1.));
#590 = ADVANCED_FACE('',(#591),#602,.F.);
#591 = FACE_BOUND('',#592,.T.);
#592 = EDGE_LOOP('',(#593,#599,#600,#601));
#593 = ORIENTED_EDGE('',*,*,#594,.F.);
#594 = EDGE_CURVE('',#263,#416,#595,.T.);
#595 = LINE('',#596,#597);
#596 = CARTESIAN_POINT('',(4.6,-402.2,37.4));
#597 = VECTOR('',#598,1.);
#598 = DIRECTION('',(0.57735026919,-0.57735026919,-0.57735026919));
#599 = ORIENTED_EDGE('',*,*,#270,.T.);
#600 = ORIENTED_EDGE('',*,*,#238,.F.);
#601 = ORIENTED_EDGE('',*,*,#423,.F.);
#602 = PLANE('',#603);
#603 = AXIS2_PLACEMENT_3D('',#604,#605,#606);
#604 = CARTESIAN_POINT('',(6.9,-404.5,34.6));
#605 = DIRECTION('',(-0.707106781187,-0.707106781187,3.9E-16));
#606 = DIRECTION('',(4.228355337246E-18,-5.557716446628E-16,-1.));
#607 = ADVANCED_FACE('',(#608),#619,.T.);
#608 = FACE_BOUND('',#609,.T.);
#609 = EDGE_LOOP('',(#610,#611,#612,#613));
#610 = ORIENTED_EDGE('',*,*,#577,.F.);
#611 = ORIENTED_EDGE('',*,*,#262,.T.);
#612 = ORIENTED_EDGE('',*,*,#594,.T.);
#613 = ORIENTED_EDGE('',*,*,#614,.F.);
#614 = EDGE_CURVE('',#303,#416,#615,.T.);
#615 = LINE('',#616,#617);
#616 = CARTESIAN_POINT('',(-7.4,-405.,34.6));
#617 = VECTOR('',#618,1.);
#618 = DIRECTION('',(1.,-5.5E-16,0.));
#619 = PLANE('',#620);
#620 = AXIS2_PLACEMENT_3D('',#621,#622,#623);
#621 = CARTESIAN_POINT('',(-7.4,-404.5,35.1));
#622 = DIRECTION('',(4.8E-16,0.707106781187,-0.707106781187));
#623 = DIRECTION('',(1.,-6.144112549695E-16,6.441125496954E-17));
#624 = ADVANCED_FACE('',(#625,#641),#652,.F.);
#625 = FACE_BOUND('',#626,.F.);
#626 = EDGE_LOOP('',(#627,#628,#634,#635));
#627 = ORIENTED_EDGE('',*,*,#284,.F.);
#628 = ORIENTED_EDGE('',*,*,#629,.T.);
#629 = EDGE_CURVE('',#285,#398,#630,.T.);
#630 = LINE('',#631,#632);
#631 = CARTESIAN_POINT('',(-7.4,-405.,19.9));
#632 = VECTOR('',#633,1.);
#633 = DIRECTION('',(1.,-5.5E-16,0.));
#634 = ORIENTED_EDGE('',*,*,#397,.T.);
#635 = ORIENTED_EDGE('',*,*,#636,.F.);
#636 = EDGE_CURVE('',#287,#400,#637,.T.);
#637 = LINE('',#638,#639);
#638 = CARTESIAN_POINT('',(-7.4,-440.,19.9));
#639 = VECTOR('',#640,1.);
#640 = DIRECTION('',(1.,-5.5E-16,-2.2E-16));
#641 = FACE_BOUND('',#642,.F.);
#642 = EDGE_LOOP('',(#643));
#643 = ORIENTED_EDGE('',*,*,#644,.T.);
#644 = EDGE_CURVE('',#645,#645,#647,.T.);
#645 = VERTEX_POINT('',#646);
#646 = CARTESIAN_POINT('',(-6.217248937901E-15,-412.5,19.9));
#647 = CIRCLE('',#648,2.5);
#648 = AXIS2_PLACEMENT_3D('',#649,#650,#651);
#649 = CARTESIAN_POINT('',(-4.44E-15,-410.,19.9));
#650 = DIRECTION('',(2.2E-16,7.8E-16,1.));
#651 = DIRECTION('',(7.8E-16,-1.,7.8E-16));
#652 = PLANE('',#653);
#653 = AXIS2_PLACEMENT_3D('',#654,#655,#656);
#654 = CARTESIAN_POINT('',(-7.4,-404.,19.9));
#655 = DIRECTION('',(6.7E-16,1.1E-16,-1.));
#656 = DIRECTION('',(5.6E-16,-1.,-1.1E-16));
#657 = ADVANCED_FACE('',(#658),#683,.T.);
#658 = FACE_BOUND('',#659,.T.);
#659 = EDGE_LOOP('',(#660,#668,#669,#677));
#660 = ORIENTED_EDGE('',*,*,#661,.T.);
#661 = EDGE_CURVE('',#662,#326,#664,.T.);
#662 = VERTEX_POINT('',#663);
#663 = CARTESIAN_POINT('',(-6.4,-404.,17.1));
#664 = LINE('',#665,#666);
#665 = CARTESIAN_POINT('',(-6.65,-404.25,17.1));
#666 = VECTOR('',#667,1.);
#667 = DIRECTION('',(-0.707106781187,-0.707106781187,3.02E-15));
#668 = ORIENTED_EDGE('',*,*,#333,.T.);
#669 = ORIENTED_EDGE('',*,*,#670,.F.);
#670 = EDGE_CURVE('',#671,#285,#673,.T.);
#671 = VERTEX_POINT('',#672);
#672 = CARTESIAN_POINT('',(-6.4,-404.,18.9));
#673 = LINE('',#674,#675);
#674 = CARTESIAN_POINT('',(-6.433333333333,-404.0333333333,
    18.933333333333));
#675 = VECTOR('',#676,1.);
#676 = DIRECTION('',(-0.57735026919,-0.57735026919,0.57735026919));
#677 = ORIENTED_EDGE('',*,*,#678,.F.);
#678 = EDGE_CURVE('',#662,#671,#679,.T.);
#679 = LINE('',#680,#681);
#680 = CARTESIAN_POINT('',(-6.4,-404.,16.1));
#681 = VECTOR('',#682,1.);
#682 = DIRECTION('',(-6.7E-16,-1.1E-16,1.));
#683 = PLANE('',#684);
#684 = AXIS2_PLACEMENT_3D('',#685,#686,#687);
#685 = CARTESIAN_POINT('',(-6.9,-404.5,16.1));
#686 = DIRECTION('',(-0.707106781187,0.707106781187,-3.9E-16));
#687 = DIRECTION('',(-6.607716446628E-16,-1.092283553372E-16,1.));
#688 = ADVANCED_FACE('',(#689,#700),#711,.F.);
#689 = FACE_BOUND('',#690,.F.);
#690 = EDGE_LOOP('',(#691,#692,#693,#699));
#691 = ORIENTED_EDGE('',*,*,#636,.T.);
#692 = ORIENTED_EDGE('',*,*,#407,.T.);
#693 = ORIENTED_EDGE('',*,*,#694,.F.);
#694 = EDGE_CURVE('',#295,#408,#695,.T.);
#695 = LINE('',#696,#697);
#696 = CARTESIAN_POINT('',(-7.4,-440.,34.6));
#697 = VECTOR('',#698,1.);
#698 = DIRECTION('',(1.,-5.5E-16,-2.2E-16));
#699 = ORIENTED_EDGE('',*,*,#294,.F.);
#700 = FACE_BOUND('',#701,.F.);
#701 = EDGE_LOOP('',(#702));
#702 = ORIENTED_EDGE('',*,*,#703,.T.);
#703 = EDGE_CURVE('',#704,#704,#706,.T.);
#704 = VERTEX_POINT('',#705);
#705 = CARTESIAN_POINT('',(1.7,-440.,27.25));
#706 = CIRCLE('',#707,1.7);
#707 = AXIS2_PLACEMENT_3D('',#708,#709,#710);
#708 = CARTESIAN_POINT('',(3.55E-15,-440.,27.25));
#709 = DIRECTION('',(1.1E-16,1.,-1.1E-16));
#710 = DIRECTION('',(1.,-1.1E-16,0.));
#711 = PLANE('',#712);
#712 = AXIS2_PLACEMENT_3D('',#713,#714,#715);
#713 = CARTESIAN_POINT('',(-7.4,-440.,19.9));
#714 = DIRECTION('',(3.4E-16,-1.,5.6E-16));
#715 = DIRECTION('',(-8.9E-16,5.6E-16,1.));
#716 = ADVANCED_FACE('',(#717),#742,.T.);
#717 = FACE_BOUND('',#718,.T.);
#718 = EDGE_LOOP('',(#719,#727,#728,#736));
#719 = ORIENTED_EDGE('',*,*,#720,.F.);
#720 = EDGE_CURVE('',#318,#721,#723,.T.);
#721 = VERTEX_POINT('',#722);
#722 = CARTESIAN_POINT('',(-6.4,-449.,16.1));
#723 = LINE('',#724,#725);
#724 = CARTESIAN_POINT('',(-7.15,-449.,16.85));
#725 = VECTOR('',#726,1.);
#726 = DIRECTION('',(0.707106781187,-7.02E-15,-0.707106781187));
#727 = ORIENTED_EDGE('',*,*,#325,.T.);
#728 = ORIENTED_EDGE('',*,*,#729,.F.);
#729 = EDGE_CURVE('',#730,#326,#732,.T.);
#730 = VERTEX_POINT('',#731);
#731 = CARTESIAN_POINT('',(-6.4,-405.,16.1));
#732 = LINE('',#733,#734);
#733 = CARTESIAN_POINT('',(-6.9,-405.,16.6));
#734 = VECTOR('',#735,1.);
#735 = DIRECTION('',(-0.707106781187,-3.46E-15,0.707106781187));
#736 = ORIENTED_EDGE('',*,*,#737,.F.);
#737 = EDGE_CURVE('',#721,#730,#738,.T.);
#738 = LINE('',#739,#740);
#739 = CARTESIAN_POINT('',(-6.4,-450.,16.1));
#740 = VECTOR('',#741,1.);
#741 = DIRECTION('',(-3.3E-16,1.,-5.6E-16));
#742 = PLANE('',#743);
#743 = AXIS2_PLACEMENT_3D('',#744,#745,#746);
#744 = CARTESIAN_POINT('',(-6.9,-450.,16.6));
#745 = DIRECTION('',(-0.707106781187,1.7E-16,-0.707106781187));
#746 = DIRECTION('',(2.302081528017E-16,1.,1.020815280171E-17));
#747 = ADVANCED_FACE('',(#748,#754),#757,.F.);
#748 = FACE_BOUND('',#749,.F.);
#749 = EDGE_LOOP('',(#750,#751,#752,#753));
#750 = ORIENTED_EDGE('',*,*,#302,.F.);
#751 = ORIENTED_EDGE('',*,*,#694,.T.);
#752 = ORIENTED_EDGE('',*,*,#415,.T.);
#753 = ORIENTED_EDGE('',*,*,#614,.F.);
#754 = FACE_BOUND('',#755,.F.);
#755 = EDGE_LOOP('',(#756));
#756 = ORIENTED_EDGE('',*,*,#562,.F.);
#757 = PLANE('',#758);
#758 = AXIS2_PLACEMENT_3D('',#759,#760,#761);
#759 = CARTESIAN_POINT('',(-7.4,-440.,34.6));
#760 = DIRECTION('',(-6.7E-16,-1.1E-16,1.));
#761 = DIRECTION('',(-5.6E-16,1.,1.1E-16));
#762 = ADVANCED_FACE('',(#763),#774,.T.);
#763 = FACE_BOUND('',#764,.T.);
#764 = EDGE_LOOP('',(#765,#766,#767,#773));
#765 = ORIENTED_EDGE('',*,*,#382,.T.);
#766 = ORIENTED_EDGE('',*,*,#317,.T.);
#767 = ORIENTED_EDGE('',*,*,#768,.T.);
#768 = EDGE_CURVE('',#318,#520,#769,.T.);
#769 = LINE('',#770,#771);
#770 = CARTESIAN_POINT('',(-7.15,-449.25,17.1));
#771 = VECTOR('',#772,1.);
#772 = DIRECTION('',(0.707106781187,-0.707106781187,-9.2E-16));
#773 = ORIENTED_EDGE('',*,*,#527,.F.);
#774 = PLANE('',#775);
#775 = AXIS2_PLACEMENT_3D('',#776,#777,#778);
#776 = CARTESIAN_POINT('',(-6.9,-449.5,38.4));
#777 = DIRECTION('',(-0.707106781187,-0.707106781187,2.4E-16));
#778 = DIRECTION('',(1.102943725152E-16,-4.497056274848E-16,-1.));
#779 = ADVANCED_FACE('',(#780),#796,.F.);
#780 = FACE_BOUND('',#781,.F.);
#781 = EDGE_LOOP('',(#782,#783,#789,#790));
#782 = ORIENTED_EDGE('',*,*,#454,.F.);
#783 = ORIENTED_EDGE('',*,*,#784,.T.);
#784 = EDGE_CURVE('',#455,#342,#785,.T.);
#785 = LINE('',#786,#787);
#786 = CARTESIAN_POINT('',(7.4,-446.,24.25));
#787 = VECTOR('',#788,1.);
#788 = DIRECTION('',(-1.,2.2E-16,-1.1E-16));
#789 = ORIENTED_EDGE('',*,*,#341,.T.);
#790 = ORIENTED_EDGE('',*,*,#791,.F.);
#791 = EDGE_CURVE('',#457,#344,#792,.T.);
#792 = LINE('',#793,#794);
#793 = CARTESIAN_POINT('',(7.4,-443.,24.25));
#794 = VECTOR('',#795,1.);
#795 = DIRECTION('',(-1.,2.2E-16,-1.1E-16));
#796 = PLANE('',#797);
#797 = AXIS2_PLACEMENT_3D('',#798,#799,#800);
#798 = CARTESIAN_POINT('',(7.4,-446.,24.25));
#799 = DIRECTION('',(1.1E-16,-3.3E-16,-1.));
#800 = DIRECTION('',(0.,1.,-3.3E-16));
#801 = ADVANCED_FACE('',(#802,#813),#824,.F.);
#802 = FACE_BOUND('',#803,.F.);
#803 = EDGE_LOOP('',(#804,#805,#806,#807));
#804 = ORIENTED_EDGE('',*,*,#480,.F.);
#805 = ORIENTED_EDGE('',*,*,#791,.T.);
#806 = ORIENTED_EDGE('',*,*,#367,.T.);
#807 = ORIENTED_EDGE('',*,*,#808,.F.);
#808 = EDGE_CURVE('',#473,#360,#809,.T.);
#809 = LINE('',#810,#811);
#810 = CARTESIAN_POINT('',(7.4,-443.,30.25));
#811 = VECTOR('',#812,1.);
#812 = DIRECTION('',(-1.,2.2E-16,-1.1E-16));
#813 = FACE_BOUND('',#814,.F.);
#814 = EDGE_LOOP('',(#815));
#815 = ORIENTED_EDGE('',*,*,#816,.F.);
#816 = EDGE_CURVE('',#817,#817,#819,.T.);
#817 = VERTEX_POINT('',#818);
#818 = CARTESIAN_POINT('',(1.7,-443.,27.25));
#819 = CIRCLE('',#820,1.7);
#820 = AXIS2_PLACEMENT_3D('',#821,#822,#823);
#821 = CARTESIAN_POINT('',(-9.77E-15,-443.,27.25));
#822 = DIRECTION('',(0.,1.,-6.7E-16));
#823 = DIRECTION('',(1.,1.474E-31,2.2E-16));
#824 = PLANE('',#825);
#825 = AXIS2_PLACEMENT_3D('',#826,#827,#828);
#826 = CARTESIAN_POINT('',(7.4,-443.,24.25));
#827 = DIRECTION('',(2.2E-16,1.,-1.1E-16));
#828 = DIRECTION('',(-3.3E-16,1.1E-16,1.));
#829 = ADVANCED_FACE('',(#830),#841,.F.);
#830 = FACE_BOUND('',#831,.F.);
#831 = EDGE_LOOP('',(#832,#833,#834,#835));
#832 = ORIENTED_EDGE('',*,*,#472,.F.);
#833 = ORIENTED_EDGE('',*,*,#808,.T.);
#834 = ORIENTED_EDGE('',*,*,#359,.T.);
#835 = ORIENTED_EDGE('',*,*,#836,.F.);
#836 = EDGE_CURVE('',#465,#352,#837,.T.);
#837 = LINE('',#838,#839);
#838 = CARTESIAN_POINT('',(7.4,-446.,30.25));
#839 = VECTOR('',#840,1.);
#840 = DIRECTION('',(-1.,2.2E-16,-1.1E-16));
#841 = PLANE('',#842);
#842 = AXIS2_PLACEMENT_3D('',#843,#844,#845);
#843 = CARTESIAN_POINT('',(7.4,-443.,30.25));
#844 = DIRECTION('',(-1.1E-16,3.3E-16,1.));
#845 = DIRECTION('',(0.,-1.,3.3E-16));
#846 = ADVANCED_FACE('',(#847,#853),#864,.F.);
#847 = FACE_BOUND('',#848,.F.);
#848 = EDGE_LOOP('',(#849,#850,#851,#852));
#849 = ORIENTED_EDGE('',*,*,#464,.F.);
#850 = ORIENTED_EDGE('',*,*,#836,.T.);
#851 = ORIENTED_EDGE('',*,*,#351,.T.);
#852 = ORIENTED_EDGE('',*,*,#784,.F.);
#853 = FACE_BOUND('',#854,.F.);
#854 = EDGE_LOOP('',(#855));
#855 = ORIENTED_EDGE('',*,*,#856,.T.);
#856 = EDGE_CURVE('',#857,#857,#859,.T.);
#857 = VERTEX_POINT('',#858);
#858 = CARTESIAN_POINT('',(1.7,-446.,27.25));
#859 = CIRCLE('',#860,1.7);
#860 = AXIS2_PLACEMENT_3D('',#861,#862,#863);
#861 = CARTESIAN_POINT('',(-9.77E-15,-446.,27.25));
#862 = DIRECTION('',(0.,1.,-6.7E-16));
#863 = DIRECTION('',(1.,1.474E-31,2.2E-16));
#864 = PLANE('',#865);
#865 = AXIS2_PLACEMENT_3D('',#866,#867,#868);
#866 = CARTESIAN_POINT('',(7.4,-446.,30.25));
#867 = DIRECTION('',(-2.2E-16,-1.,1.1E-16));
#868 = DIRECTION('',(3.3E-16,-1.1E-16,-1.));
#869 = ADVANCED_FACE('',(#870),#895,.F.);
#870 = FACE_BOUND('',#871,.F.);
#871 = EDGE_LOOP('',(#872,#880,#881,#889));
#872 = ORIENTED_EDGE('',*,*,#873,.T.);
#873 = EDGE_CURVE('',#874,#439,#876,.T.);
#874 = VERTEX_POINT('',#875);
#875 = CARTESIAN_POINT('',(6.4,-404.,17.1));
#876 = LINE('',#877,#878);
#877 = CARTESIAN_POINT('',(6.65,-404.25,17.1));
#878 = VECTOR('',#879,1.);
#879 = DIRECTION('',(0.707106781187,-0.707106781187,-4.E-15));
#880 = ORIENTED_EDGE('',*,*,#446,.T.);
#881 = ORIENTED_EDGE('',*,*,#882,.F.);
#882 = EDGE_CURVE('',#883,#398,#885,.T.);
#883 = VERTEX_POINT('',#884);
#884 = CARTESIAN_POINT('',(6.4,-404.,18.9));
#885 = LINE('',#886,#887);
#886 = CARTESIAN_POINT('',(3.966666666667,-401.5666666666,
    16.466666666667));
#887 = VECTOR('',#888,1.);
#888 = DIRECTION('',(0.57735026919,-0.57735026919,0.57735026919));
#889 = ORIENTED_EDGE('',*,*,#890,.F.);
#890 = EDGE_CURVE('',#874,#883,#891,.T.);
#891 = LINE('',#892,#893);
#892 = CARTESIAN_POINT('',(6.4,-404.,16.1));
#893 = VECTOR('',#894,1.);
#894 = DIRECTION('',(-6.7E-16,-1.1E-16,1.));
#895 = PLANE('',#896);
#896 = AXIS2_PLACEMENT_3D('',#897,#898,#899);
#897 = CARTESIAN_POINT('',(6.9,-404.5,16.1));
#898 = DIRECTION('',(-0.707106781187,-0.707106781187,3.9E-16));
#899 = DIRECTION('',(-4.228355337246E-18,5.557716446628E-16,1.));
#900 = ADVANCED_FACE('',(#901),#926,.F.);
#901 = FACE_BOUND('',#902,.F.);
#902 = EDGE_LOOP('',(#903,#911,#912,#920));
#903 = ORIENTED_EDGE('',*,*,#904,.F.);
#904 = EDGE_CURVE('',#431,#905,#907,.T.);
#905 = VERTEX_POINT('',#906);
#906 = CARTESIAN_POINT('',(6.4,-449.,16.1));
#907 = LINE('',#908,#909);
#908 = CARTESIAN_POINT('',(7.15,-449.,16.85));
#909 = VECTOR('',#910,1.);
#910 = DIRECTION('',(-0.707106781187,-9.46E-15,-0.707106781187));
#911 = ORIENTED_EDGE('',*,*,#438,.T.);
#912 = ORIENTED_EDGE('',*,*,#913,.F.);
#913 = EDGE_CURVE('',#914,#439,#916,.T.);
#914 = VERTEX_POINT('',#915);
#915 = CARTESIAN_POINT('',(6.4,-405.,16.1));
#916 = LINE('',#917,#918);
#917 = CARTESIAN_POINT('',(6.9,-405.,16.6));
#918 = VECTOR('',#919,1.);
#919 = DIRECTION('',(0.707106781187,4.46E-15,0.707106781187));
#920 = ORIENTED_EDGE('',*,*,#921,.F.);
#921 = EDGE_CURVE('',#905,#914,#922,.T.);
#922 = LINE('',#923,#924);
#923 = CARTESIAN_POINT('',(6.4,-450.,16.1));
#924 = VECTOR('',#925,1.);
#925 = DIRECTION('',(-3.3E-16,1.,-5.6E-16));
#926 = PLANE('',#927);
#927 = AXIS2_PLACEMENT_3D('',#928,#929,#930);
#928 = CARTESIAN_POINT('',(6.9,-450.,16.6));
#929 = DIRECTION('',(-0.707106781187,4.1E-16,0.707106781187));
#930 = DIRECTION('',(-1.550862197135E-16,1.,-7.349137802865E-16));
#931 = ADVANCED_FACE('',(#932),#943,.F.);
#932 = FACE_BOUND('',#933,.F.);
#933 = EDGE_LOOP('',(#934,#935,#936,#942));
#934 = ORIENTED_EDGE('',*,*,#495,.T.);
#935 = ORIENTED_EDGE('',*,*,#430,.T.);
#936 = ORIENTED_EDGE('',*,*,#937,.T.);
#937 = EDGE_CURVE('',#431,#512,#938,.T.);
#938 = LINE('',#939,#940);
#939 = CARTESIAN_POINT('',(7.15,-449.25,17.1));
#940 = VECTOR('',#941,1.);
#941 = DIRECTION('',(-0.707106781187,-0.707106781187,-1.98E-15));
#942 = ORIENTED_EDGE('',*,*,#511,.F.);
#943 = PLANE('',#944);
#944 = AXIS2_PLACEMENT_3D('',#945,#946,#947);
#945 = CARTESIAN_POINT('',(6.9,-449.5,38.4));
#946 = DIRECTION('',(-0.707106781187,0.707106781187,-2.4E-16));
#947 = DIRECTION('',(5.597056274848E-16,2.202943725152E-16,-1.));
#948 = ADVANCED_FACE('',(#949),#970,.T.);
#949 = FACE_BOUND('',#950,.F.);
#950 = EDGE_LOOP('',(#951,#952,#958,#964));
#951 = ORIENTED_EDGE('',*,*,#519,.T.);
#952 = ORIENTED_EDGE('',*,*,#953,.F.);
#953 = EDGE_CURVE('',#905,#512,#954,.T.);
#954 = LINE('',#955,#956);
#955 = CARTESIAN_POINT('',(6.4,-449.5,16.6));
#956 = VECTOR('',#957,1.);
#957 = DIRECTION('',(-6.81E-15,-0.707106781187,0.707106781187));
#958 = ORIENTED_EDGE('',*,*,#959,.F.);
#959 = EDGE_CURVE('',#721,#905,#960,.T.);
#960 = LINE('',#961,#962);
#961 = CARTESIAN_POINT('',(-7.4,-449.,16.1));
#962 = VECTOR('',#963,1.);
#963 = DIRECTION('',(1.,-5.5E-16,0.));
#964 = ORIENTED_EDGE('',*,*,#965,.T.);
#965 = EDGE_CURVE('',#721,#520,#966,.T.);
#966 = LINE('',#967,#968);
#967 = CARTESIAN_POINT('',(-6.4,-449.5,16.6));
#968 = VECTOR('',#969,1.);
#969 = DIRECTION('',(5.02E-15,-0.707106781187,0.707106781187));
#970 = PLANE('',#971);
#971 = AXIS2_PLACEMENT_3D('',#972,#973,#974);
#972 = CARTESIAN_POINT('',(-7.4,-449.5,16.6));
#973 = DIRECTION('',(7.E-16,-0.707106781187,-0.707106781187));
#974 = DIRECTION('',(-1.,-2.199747468306E-16,-7.699747468306E-16));
#975 = ADVANCED_FACE('',(#976),#987,.F.);
#976 = FACE_BOUND('',#977,.T.);
#977 = EDGE_LOOP('',(#978,#979,#985,#986));
#978 = ORIENTED_EDGE('',*,*,#535,.T.);
#979 = ORIENTED_EDGE('',*,*,#980,.T.);
#980 = EDGE_CURVE('',#536,#857,#981,.T.);
#981 = LINE('',#982,#983);
#982 = CARTESIAN_POINT('',(1.7,-450.,27.25));
#983 = VECTOR('',#984,1.);
#984 = DIRECTION('',(-4.E-16,1.,-5.6E-16));
#985 = ORIENTED_EDGE('',*,*,#856,.T.);
#986 = ORIENTED_EDGE('',*,*,#980,.F.);
#987 = CYLINDRICAL_SURFACE('',#988,1.7);
#988 = AXIS2_PLACEMENT_3D('',#989,#990,#991);
#989 = CARTESIAN_POINT('',(2.84217094304E-14,-450.,27.25));
#990 = DIRECTION('',(-3.3E-16,1.,-5.6E-16));
#991 = DIRECTION('',(1.,3.3E-16,0.));
#992 = ADVANCED_FACE('',(#993),#1004,.T.);
#993 = FACE_BOUND('',#994,.F.);
#994 = EDGE_LOOP('',(#995,#996,#1002,#1003));
#995 = ORIENTED_EDGE('',*,*,#670,.F.);
#996 = ORIENTED_EDGE('',*,*,#997,.T.);
#997 = EDGE_CURVE('',#671,#883,#998,.T.);
#998 = LINE('',#999,#1000);
#999 = CARTESIAN_POINT('',(-7.4,-404.,18.9));
#1000 = VECTOR('',#1001,1.);
#1001 = DIRECTION('',(1.,-5.5E-16,0.));
#1002 = ORIENTED_EDGE('',*,*,#882,.T.);
#1003 = ORIENTED_EDGE('',*,*,#629,.F.);
#1004 = PLANE('',#1005);
#1005 = AXIS2_PLACEMENT_3D('',#1006,#1007,#1008);
#1006 = CARTESIAN_POINT('',(-7.4,-404.5,19.4));
#1007 = DIRECTION('',(-5.5E-16,0.707106781187,0.707106781187));
#1008 = DIRECTION('',(-1.,-1.139087296526E-16,-6.639087296526E-16));
#1009 = ADVANCED_FACE('',(#1010),#1029,.F.);
#1010 = FACE_BOUND('',#1011,.F.);
#1011 = EDGE_LOOP('',(#1012,#1020,#1021,#1022));
#1012 = ORIENTED_EDGE('',*,*,#1013,.F.);
#1013 = EDGE_CURVE('',#645,#1014,#1016,.T.);
#1014 = VERTEX_POINT('',#1015);
#1015 = CARTESIAN_POINT('',(-1.42108547152E-14,-412.5,17.1));
#1016 = LINE('',#1017,#1018);
#1017 = CARTESIAN_POINT('',(-1.51E-14,-412.5,38.4));
#1018 = VECTOR('',#1019,1.);
#1019 = DIRECTION('',(8.9E-16,3.3E-16,-1.));
#1020 = ORIENTED_EDGE('',*,*,#644,.F.);
#1021 = ORIENTED_EDGE('',*,*,#1013,.T.);
#1022 = ORIENTED_EDGE('',*,*,#1023,.T.);
#1023 = EDGE_CURVE('',#1014,#1014,#1024,.T.);
#1024 = CIRCLE('',#1025,2.5);
#1025 = AXIS2_PLACEMENT_3D('',#1026,#1027,#1028);
#1026 = CARTESIAN_POINT('',(-1.954E-14,-410.,17.1));
#1027 = DIRECTION('',(0.,7.8E-16,1.));
#1028 = DIRECTION('',(6.73E-15,-1.,7.8E-16));
#1029 = CYLINDRICAL_SURFACE('',#1030,2.5);
#1030 = AXIS2_PLACEMENT_3D('',#1031,#1032,#1033);
#1031 = CARTESIAN_POINT('',(-1.688E-14,-410.,38.4));
#1032 = DIRECTION('',(-6.7E-16,-1.1E-16,1.));
#1033 = DIRECTION('',(7.8E-16,-1.,-1.1E-16));
#1034 = ADVANCED_FACE('',(#1035),#1045,.F.);
#1035 = FACE_BOUND('',#1036,.F.);
#1036 = EDGE_LOOP('',(#1037,#1043,#1044));
#1037 = ORIENTED_EDGE('',*,*,#1038,.F.);
#1038 = EDGE_CURVE('',#662,#730,#1039,.T.);
#1039 = LINE('',#1040,#1041);
#1040 = CARTESIAN_POINT('',(-6.4,-404.25,16.85));
#1041 = VECTOR('',#1042,1.);
#1042 = DIRECTION('',(-7.E-16,-0.707106781187,-0.707106781187));
#1043 = ORIENTED_EDGE('',*,*,#661,.T.);
#1044 = ORIENTED_EDGE('',*,*,#729,.F.);
#1045 = PLANE('',#1046);
#1046 = AXIS2_PLACEMENT_3D('',#1047,#1048,#1049);
#1047 = CARTESIAN_POINT('',(-6.4,-404.,17.1));
#1048 = DIRECTION('',(0.57735026919,-0.57735026919,0.57735026919));
#1049 = DIRECTION('',(-0.707106781187,3.608224830032E-16,0.707106781187)
  );
#1050 = ADVANCED_FACE('',(#1051),#1062,.F.);
#1051 = FACE_BOUND('',#1052,.F.);
#1052 = EDGE_LOOP('',(#1053,#1059,#1060,#1061));
#1053 = ORIENTED_EDGE('',*,*,#1054,.T.);
#1054 = EDGE_CURVE('',#662,#874,#1055,.T.);
#1055 = LINE('',#1056,#1057);
#1056 = CARTESIAN_POINT('',(-7.4,-404.,17.1));
#1057 = VECTOR('',#1058,1.);
#1058 = DIRECTION('',(1.,-5.5E-16,0.));
#1059 = ORIENTED_EDGE('',*,*,#890,.T.);
#1060 = ORIENTED_EDGE('',*,*,#997,.F.);
#1061 = ORIENTED_EDGE('',*,*,#678,.F.);
#1062 = PLANE('',#1063);
#1063 = AXIS2_PLACEMENT_3D('',#1064,#1065,#1066);
#1064 = CARTESIAN_POINT('',(-7.4,-404.,16.1));
#1065 = DIRECTION('',(3.4E-16,-1.,5.6E-16));
#1066 = DIRECTION('',(-8.9E-16,5.6E-16,1.));
#1067 = ADVANCED_FACE('',(#1068),#1079,.F.);
#1068 = FACE_BOUND('',#1069,.T.);
#1069 = EDGE_LOOP('',(#1070,#1071,#1077,#1078));
#1070 = ORIENTED_EDGE('',*,*,#816,.F.);
#1071 = ORIENTED_EDGE('',*,*,#1072,.T.);
#1072 = EDGE_CURVE('',#817,#704,#1073,.T.);
#1073 = LINE('',#1074,#1075);
#1074 = CARTESIAN_POINT('',(1.7,-450.,27.25));
#1075 = VECTOR('',#1076,1.);
#1076 = DIRECTION('',(-4.E-16,1.,-5.6E-16));
#1077 = ORIENTED_EDGE('',*,*,#703,.T.);
#1078 = ORIENTED_EDGE('',*,*,#1072,.F.);
#1079 = CYLINDRICAL_SURFACE('',#1080,1.7);
#1080 = AXIS2_PLACEMENT_3D('',#1081,#1082,#1083);
#1081 = CARTESIAN_POINT('',(2.84217094304E-14,-450.,27.25));
#1082 = DIRECTION('',(-3.3E-16,1.,-5.6E-16));
#1083 = DIRECTION('',(1.,3.3E-16,0.));
#1084 = ADVANCED_FACE('',(#1085),#1090,.F.);
#1085 = FACE_BOUND('',#1086,.F.);
#1086 = EDGE_LOOP('',(#1087,#1088,#1089));
#1087 = ORIENTED_EDGE('',*,*,#720,.F.);
#1088 = ORIENTED_EDGE('',*,*,#768,.T.);
#1089 = ORIENTED_EDGE('',*,*,#965,.F.);
#1090 = PLANE('',#1091);
#1091 = AXIS2_PLACEMENT_3D('',#1092,#1093,#1094);
#1092 = CARTESIAN_POINT('',(-7.4,-449.,17.1));
#1093 = DIRECTION('',(0.57735026919,0.57735026919,0.57735026919));
#1094 = DIRECTION('',(6.661338147751E-16,-0.707106781187,0.707106781187)
  );
#1095 = ADVANCED_FACE('',(#1096,#1107),#1118,.F.);
#1096 = FACE_BOUND('',#1097,.F.);
#1097 = EDGE_LOOP('',(#1098,#1099,#1100,#1106));
#1098 = ORIENTED_EDGE('',*,*,#959,.T.);
#1099 = ORIENTED_EDGE('',*,*,#921,.T.);
#1100 = ORIENTED_EDGE('',*,*,#1101,.F.);
#1101 = EDGE_CURVE('',#730,#914,#1102,.T.);
#1102 = LINE('',#1103,#1104);
#1103 = CARTESIAN_POINT('',(-7.4,-405.,16.1));
#1104 = VECTOR('',#1105,1.);
#1105 = DIRECTION('',(1.,-5.5E-16,0.));
#1106 = ORIENTED_EDGE('',*,*,#737,.F.);
#1107 = FACE_BOUND('',#1108,.F.);
#1108 = EDGE_LOOP('',(#1109));
#1109 = ORIENTED_EDGE('',*,*,#1110,.F.);
#1110 = EDGE_CURVE('',#1111,#1111,#1113,.T.);
#1111 = VERTEX_POINT('',#1112);
#1112 = CARTESIAN_POINT('',(-1.06581410364E-14,-413.5,16.1));
#1113 = CIRCLE('',#1114,3.5);
#1114 = AXIS2_PLACEMENT_3D('',#1115,#1116,#1117);
#1115 = CARTESIAN_POINT('',(-1.954E-14,-410.,16.1));
#1116 = DIRECTION('',(0.,7.8E-16,1.));
#1117 = DIRECTION('',(6.73E-15,-1.,7.8E-16));
#1118 = PLANE('',#1119);
#1119 = AXIS2_PLACEMENT_3D('',#1120,#1121,#1122);
#1120 = CARTESIAN_POINT('',(-7.4,-450.,16.1));
#1121 = DIRECTION('',(-6.7E-16,-1.1E-16,1.));
#1122 = DIRECTION('',(-5.6E-16,1.,1.1E-16));
#1123 = ADVANCED_FACE('',(#1124),#1134,.T.);
#1124 = FACE_BOUND('',#1125,.T.);
#1125 = EDGE_LOOP('',(#1126,#1132,#1133));
#1126 = ORIENTED_EDGE('',*,*,#1127,.F.);
#1127 = EDGE_CURVE('',#874,#914,#1128,.T.);
#1128 = LINE('',#1129,#1130);
#1129 = CARTESIAN_POINT('',(6.4,-404.25,16.85));
#1130 = VECTOR('',#1131,1.);
#1131 = DIRECTION('',(7.E-17,-0.707106781187,-0.707106781187));
#1132 = ORIENTED_EDGE('',*,*,#873,.T.);
#1133 = ORIENTED_EDGE('',*,*,#913,.F.);
#1134 = PLANE('',#1135);
#1135 = AXIS2_PLACEMENT_3D('',#1136,#1137,#1138);
#1136 = CARTESIAN_POINT('',(6.4,-404.,17.1));
#1137 = DIRECTION('',(0.57735026919,0.57735026919,-0.57735026919));
#1138 = DIRECTION('',(0.707106781187,4.080069615497E-15,0.707106781187)
  );
#1139 = ADVANCED_FACE('',(#1140),#1145,.T.);
#1140 = FACE_BOUND('',#1141,.T.);
#1141 = EDGE_LOOP('',(#1142,#1143,#1144));
#1142 = ORIENTED_EDGE('',*,*,#904,.F.);
#1143 = ORIENTED_EDGE('',*,*,#937,.T.);
#1144 = ORIENTED_EDGE('',*,*,#953,.F.);
#1145 = PLANE('',#1146);
#1146 = AXIS2_PLACEMENT_3D('',#1147,#1148,#1149);
#1147 = CARTESIAN_POINT('',(7.4,-449.,17.1));
#1148 = DIRECTION('',(0.57735026919,-0.57735026919,-0.57735026919));
#1149 = DIRECTION('',(-2.581268532253E-15,-0.707106781187,0.707106781187
    ));
#1150 = ADVANCED_FACE('',(#1151),#1162,.F.);
#1151 = FACE_BOUND('',#1152,.F.);
#1152 = EDGE_LOOP('',(#1153,#1159,#1160,#1161));
#1153 = ORIENTED_EDGE('',*,*,#1154,.F.);
#1154 = EDGE_CURVE('',#1111,#1014,#1155,.T.);
#1155 = LINE('',#1156,#1157);
#1156 = CARTESIAN_POINT('',(-8.88E-15,-412.5,17.1));
#1157 = VECTOR('',#1158,1.);
#1158 = DIRECTION('',(-3.31E-15,0.707106781187,0.707106781187));
#1159 = ORIENTED_EDGE('',*,*,#1110,.T.);
#1160 = ORIENTED_EDGE('',*,*,#1154,.T.);
#1161 = ORIENTED_EDGE('',*,*,#1023,.F.);
#1162 = CONICAL_SURFACE('',#1163,2.5,0.785398163397);
#1163 = AXIS2_PLACEMENT_3D('',#1164,#1165,#1166);
#1164 = CARTESIAN_POINT('',(-1.954E-14,-410.,17.1));
#1165 = DIRECTION('',(4.4E-16,-3.3E-16,-1.));
#1166 = DIRECTION('',(6.73E-15,-1.,3.3E-16));
#1167 = ADVANCED_FACE('',(#1168),#1174,.T.);
#1168 = FACE_BOUND('',#1169,.F.);
#1169 = EDGE_LOOP('',(#1170,#1171,#1172,#1173));
#1170 = ORIENTED_EDGE('',*,*,#1038,.T.);
#1171 = ORIENTED_EDGE('',*,*,#1101,.T.);
#1172 = ORIENTED_EDGE('',*,*,#1127,.F.);
#1173 = ORIENTED_EDGE('',*,*,#1054,.F.);
#1174 = PLANE('',#1175);
#1175 = AXIS2_PLACEMENT_3D('',#1176,#1177,#1178);
#1176 = CARTESIAN_POINT('',(-7.4,-404.5,16.6));
#1177 = DIRECTION('',(4.E-16,0.707106781187,-0.707106781187));
#1178 = DIRECTION('',(-1.,5.578427124746E-16,-7.842712474619E-18));
#1179 = ( GEOMETRIC_REPRESENTATION_CONTEXT(3) 
GLOBAL_UNCERTAINTY_ASSIGNED_CONTEXT((#1183)) 
GLOBAL_UNIT_ASSIGNED_CONTEXT((#1180,#1181,#1182)) REPRESENTATION_CONTEXT
('Context #1','3D Context with UNIT and UNCERTAINTY') );
#1180 = ( LENGTH_UNIT() NAMED_UNIT(*) SI_UNIT(.MILLI.,.METRE.) );
#1181 = ( NAMED_UNIT(*) PLANE_ANGLE_UNIT() SI_UNIT($,.RADIAN.) );
#1182 = ( NAMED_UNIT(*) SI_UNIT($,.STERADIAN.) SOLID_ANGLE_UNIT() );
#1183 = UNCERTAINTY_MEASURE_WITH_UNIT(LENGTH_MEASURE(5.E-05),#1180,
  'distance_accuracy_value','confusion accuracy');
#1184 = PRODUCT_RELATED_PRODUCT_CATEGORY('part',$,(#7));
#1185 = MECHANICAL_DESIGN_GEOMETRIC_PRESENTATION_REPRESENTATION('',(
    #1186),#1179);
#1186 = STYLED_ITEM('color',(#1187),#15);
#1187 = PRESENTATION_STYLE_ASSIGNMENT((#1188,#1194));
#1188 = SURFACE_STYLE_USAGE(.BOTH.,#1189);
#1189 = SURFACE_SIDE_STYLE('',(#1190));
#1190 = SURFACE_STYLE_FILL_AREA(#1191);
#1191 = FILL_AREA_STYLE('',(#1192));
#1192 = FILL_AREA_STYLE_COLOUR('',#1193);
#1193 = COLOUR_RGB('',0.815686284108,0.396078428884,0.54901964059);
#1194 = CURVE_STYLE('',#1195,POSITIVE_LENGTH_MEASURE(0.1),#1196);
#1195 = DRAUGHTING_PRE_DEFINED_CURVE_FONT('continuous');
#1196 = COLOUR_RGB('',9.803921802644E-02,9.803921802644E-02,
  9.803921802644E-02);
ENDSEC;
END-ISO-10303-21;
